<svg xmlns="http://www.w3.org/2000/svg" viewBox="0 0 100 30.96"><defs><style>.cls-1{fill:#fff;}.cls-2{opacity:0.2;}</style></defs><title>Refari Logo White 100</title><g id="Layer_2" data-name="Layer 2"><g id="Layer_1-2" data-name="Layer 1"><path class="cls-1" d="M24.41,30.84l-8.5,0L9.74,20.4l-2,0L7.63,31H0l.11-5.43S-.1,17.89,10.18,12l1.07,3.32,5.12-7.46L8,4.81,9,8.34S2.83,11.23,0,14V0H10.85S23.64-.83,22.92,10.17a9.39,9.39,0,0,1-5.49,8.4Z"></path><path class="cls-2" d="M15.85,8.57a3,3,0,0,1,.69.27l-5.26,7.1-.93-3.23A18,18,0,0,0,.15,25.06S.21,17.7,10.2,12l1,3.3Z"></path><path class="cls-1" d="M35.15,10.49s-6.41-.72-9.63,4.82A11,11,0,0,0,25.41,26s5.09,9.08,17.34,2.64l-2-3.87s-7.15,4.7-10.86-2.37H43.33S45.52,11.34,35.15,10.49Zm3.2,7.92H29.94c1.08-4,4.31-3.67,4.31-3.67C38.53,14.9,38.36,18.41,38.36,18.41Z"></path><path class="cls-1" d="M56.42.62V5.4S53.47,4.92,53,7.54v2.75l3.31,0,0,4.39H53v16.2H47.43V14.71h-3.1V10.34h3.09l0-3.54S48,.7,54.05.62Z"></path><path class="cls-1" d="M69.65,10.4a18.58,18.58,0,0,0-11.39,2.41l2.07,3.86s3.78-2.69,7.45-2.19c0,0,3.4,0,3.61,3.17,0,0-6.46-.58-9.51,1a6.66,6.66,0,0,0-4.42,6.3s-.27,5.52,6.1,6c0,0,5,.4,7.67-1.9l0,1.93h5.26V17.57S76.35,11.11,69.65,10.4Zm-6,16.09s-2-1-.6-3.32,8.45-1.38,8.45-1.38v2.31S67.77,27.59,63.66,26.5Z"></path><path class="cls-1" d="M78.85,10.34l5.41,0v2.44a5.87,5.87,0,0,1,3.56-2.17l4.27-.12v4.8A7.21,7.21,0,0,0,86,17.06a6,6,0,0,0-1.55,4.14v9.73h-5.6Z"></path><rect class="cls-1" x="94.44" y="10.34" width="5.54" height="20.6"></rect><rect class="cls-1" x="94.43" y="3.11" width="5.57" height="5.03"></rect></g></g></svg>