<svg xmlns="http://www.w3.org/2000/svg" xmlns:xlink="http://www.w3.org/1999/xlink" width="54" height="54" viewBox="0 0 54 54">
  <defs>
    <linearGradient id="linear-gradient" x1="-0.107" y1="0.497" x2="6.594" y2="0.531" gradientUnits="objectBoundingBox">
      <stop offset="0" stop-color="#ff0a95"/>
      <stop offset="0.13" stop-color="#ff0a95"/>
      <stop offset="0.17" stop-color="#e729a2"/>
      <stop offset="0.24" stop-color="#c754b4"/>
      <stop offset="0.31" stop-color="#aa7ac4"/>
      <stop offset="0.38" stop-color="#9299d2"/>
      <stop offset="0.46" stop-color="#7fb3dd"/>
      <stop offset="0.55" stop-color="#70c7e5"/>
      <stop offset="0.65" stop-color="#65d5eb"/>
      <stop offset="0.78" stop-color="#5fddee"/>
      <stop offset="1" stop-color="#5ee0f0"/>
    </linearGradient>
    <linearGradient id="linear-gradient-2" x1="-0.126" y1="0.498" x2="6.85" y2="0.546" xlink:href="#linear-gradient"/>
    <linearGradient id="linear-gradient-3" x1="-0.141" y1="0.499" x2="6.865" y2="0.541" xlink:href="#linear-gradient"/>
    <linearGradient id="linear-gradient-4" x1="-0.613" y1="0.496" x2="2.586" y2="0.509" xlink:href="#linear-gradient"/>
  </defs>
  <g id="Top_rec_Logo_54_54" data-name="Top rec Logo 54*54" transform="translate(-49 3447)">
    <circle id="Ellipse_4" data-name="Ellipse 4" cx="27" cy="27" r="27" transform="translate(49 -3447)" fill="#fff"/>
    <g id="top_rec_38_32" data-name="top rec 38*32" transform="translate(57 -3436)">
      <path id="Path_3059" data-name="Path 3059" d="M.047,335.773a5.591,5.591,0,0,1,.109-.575,6.382,6.382,0,0,1,1.584-3,5.773,5.773,0,0,1,2.553-1.506,6.332,6.332,0,0,1,2.635-.157,5.918,5.918,0,0,1,5.085,5.654,6.293,6.293,0,0,1-1.113,3.992,6.186,6.186,0,0,1-8.363,1.349,5.494,5.494,0,0,1-2.011-2.479,6.37,6.37,0,0,1-.482-3.283Zm5.9-2.315a3.153,3.153,0,0,0-3.262,2.851,3.1,3.1,0,0,0,2.753,3.279A3.279,3.279,0,0,0,9.38,336.34a3.24,3.24,0,0,0-3.435-2.881Z" transform="translate(0.001 -320.338)" fill="url(#linear-gradient)"/>
      <path id="Path_3062" data-name="Path 3062" d="M15.62,15.324h3.518v2.839H7.623c0-1.762-.086-3.6.024-5.357a3.5,3.5,0,0,1,3.07-3.136,3.914,3.914,0,0,1,4.852,3.066,12.354,12.354,0,0,1,.051,1.7C15.625,14.7,15.62,14.967,15.62,15.324Zm-2.469-.035c-.079-.906.3-1.857-.595-2.506a1.809,1.809,0,0,0-1.94.014c-.87.666-.476,1.61-.55,2.493Z" transform="translate(-7.36 -9.277)" fill="url(#linear-gradient-2)"/>
      <path id="Path_3063" data-name="Path 3063" d="M11.608,724.02v3.439h9.081v2.894c-.235,0-6.437.012-9.04-.011-.008.008-.038,2.5-.038,3.479H9.19v-9.8Z" transform="translate(-8.911 -701.85)" fill="url(#linear-gradient-3)"/>
      <g id="Group_5" data-name="Group 5" transform="translate(1)">
        <path id="Path_3060" data-name="Path 3060" d="M482.037,19.208l7.1,12.7c-.253.017-.431.038-.612.039-2.528.014-5.056.018-7.583.049a.8.8,0,0,1-.8-.467c-1.9-3.309-3.815-6.6-5.71-9.913-.1-.176-.287-.489-.287-.489s-1.488.017-2.044.017V31.966h-7.926v-1.41a24.969,24.969,0,0,1,.448-6.241A15.563,15.563,0,0,1,467.751,18a18.927,18.927,0,0,1,6.3-5.374c.17-.079.34-.163.59-.283l1.085,3.4,5.107-7.618-8.387-3.05.677,2.41c.163.577.324,1.144.324,1.144s-.539.271-1.078.533a35.89,35.89,0,0,0-7.83,5.074c-.082.071-.17.132-.323.249-.017-.231-.04-.389-.04-.552,0-4.434.008-8.87-.014-13.3V.021S464.533,0,464.8,0c3.678.02,7.358,0,11.036.017a17.792,17.792,0,0,1,5.249.731,8.6,8.6,0,0,1,6.53,8.562,10.809,10.809,0,0,1-1.541,6.438,9.143,9.143,0,0,1-3.457,3.128c-.179.1-.356.2-.583.324Z" transform="translate(-452.14)" fill="url(#linear-gradient-4)"/>
        <path id="Path_3064" data-name="Path 3064" d="M464.7,326.28s-.011-.414.028-1.11a14.514,14.514,0,0,1,.21-1.888,15.834,15.834,0,0,1,.5-1.936c.028-.09.073-.22.105-.31a14.369,14.369,0,0,1,1.234-2.689,11.24,11.24,0,0,1,.678-1.034,22.176,22.176,0,0,1,1.483-1.775c.535-.591,1.052-1.125,1.533-1.573.5-.464.963-.852,1.354-1.153.343-.264.631-.459.841-.6a16.864,16.864,0,0,1,2.22-1.179l1.065,3.231,4.129-5.987.616.125-4.8,6.956-1.051-3.192s-4.744,2.482-6.617,5.132-3.075,4.214-3.524,8.979Z" transform="translate(-452.699 -298.282)" opacity="0.3"/>
      </g>
    </g>
  </g>
</svg>
