<svg xmlns="http://www.w3.org/2000/svg" width="400" height="159.404">
  <g fill-rule="evenodd">
    <path fill="#fcfcfc"
      d="M69.808 35.91c-.013 19.758-.032 36.017-.041 36.132-.01.118.218.231.525.26.304.03.541-.025.541-.125 0-.097.08-.177.178-.177.098 0 .658-.487 1.245-1.083.587-.596 1.14-1.084 1.229-1.084.089 0 .504-.337.923-.75.418-.412.801-.75.85-.75.112 0 .437-.268 1.162-.958.313-.298.646-.542.741-.542a.17.17 0 0 0 .172-.166c0-.092.102-.167.227-.167s.367-.187.54-.417c.172-.229.407-.416.523-.416.116 0 .21-.075.21-.167 0-.092.102-.167.227-.167s.486-.243.803-.541c.317-.298.778-.648 1.024-.778.245-.131.446-.299.446-.375 0-.077.078-.139.174-.139.196 0 .427-.178 1.247-.958.312-.298.689-.542.836-.542.304 0 .743-.387.743-.655 0-.098.136-.178.302-.178.166 0 .463-.15.66-.334.197-.183.473-.333.615-.333.141 0 .258-.056.26-.125.002-.069.34-.35.75-.625s.746-.556.746-.625c.001-.069.151-.125.334-.125.183 0 .333-.075.333-.167 0-.091.081-.166.179-.166.098 0 .283-.094.411-.209.551-.494.74-.625.903-.625a.17.17 0 0 0 .174-.166c0-.092.133-.167.297-.167.163 0 .404-.15.536-.333.132-.184.364-.334.514-.334.15 0 .414-.187.586-.416.172-.23.482-.417.69-.417.207 0 .377-.075.377-.167 0-.091.118-.166.262-.166.299 0 .738-.39.738-.655 0-.098.188-.179.417-.179.229 0 .416-.075.416-.166 0-.092.134-.167.297-.167.163 0 .405-.15.537-.333.132-.184.379-.334.548-.334.17 0 .413-.093.541-.208.552-.495.74-.625.904-.625a.17.17 0 0 0 .173-.167c0-.091.15-.166.334-.166.183 0 .333-.075.333-.167 0-.092.115-.167.256-.167.304 0 1.052-.455 1.43-.87.148-.163.43-.296.625-.296.196 0 .356-.075.356-.167 0-.092.15-.167.333-.167.183 0 .333-.075.333-.166 0-.092.153-.167.339-.167.186 0 .382-.113.434-.25.053-.138.238-.25.412-.25.173 0 .315-.075.315-.167 0-.091.15-.166.334-.166.183 0 .333-.075.333-.167 0-.092.112-.167.25-.167s.25-.075.25-.166c0-.092.145-.167.321-.167a.94.94 0 0 0 .572-.25c.137-.138.33-.25.428-.25.099 0 .179-.075.179-.167 0-.091.15-.166.333-.166.184 0 .334-.075.334-.167 0-.092.187-.167.416-.167.23 0 .417-.075.417-.166 0-.092.15-.167.333-.167.184 0 .334-.075.334-.167 0-.091.152-.166.338-.166.186 0 .382-.113.435-.25.052-.138.238-.25.411-.25.174 0 .316-.075.316-.167 0-.092.187-.167.416-.167.23 0 .417-.075.417-.166 0-.092.15-.167.333-.167.184 0 .334-.075.334-.167 0-.091.135-.166.301-.166.166 0 .447-.11.625-.245s.455-.247.615-.25c.161-.003.292-.08.292-.172 0-.092.146-.167.323-.167.178 0 .37-.075.427-.166.057-.092.242-.167.413-.167.17 0 .336-.079.368-.176.032-.096.19-.195.352-.219.161-.023.272-.113.247-.199-.026-.086-.106-.136-.18-.112-.073.025-.114-.05-.092-.166.068-.353-.201-1.781-.353-1.875-.079-.048-.193-.406-.254-.796-.11-.697-.559-2.579-1.004-4.207a49.046 49.046 0 0 1-.694-2.96c-.12-.602.194-.957.847-.957.513 0 .524-.016.462-.666-.041-.429-.147-.667-.296-.667-.165 0-.233-.22-.233-.75 0-.413-.075-.75-.166-.75-.092 0-.167-.296-.167-.657 0-.361-.075-.703-.167-.76-.091-.056-.166-.361-.166-.676 0-.316-.075-.574-.167-.574-.092 0-.167-.225-.167-.5s-.075-.5-.166-.5c-.092 0-.167-.112-.167-.25 0-.166.167-.25.5-.25.275 0 .5.075.5.167 0 .092.179.167.399.167.219 0 .442.112.495.25.056.146.305.25.601.25.278 0 .505.075.505.166 0 .092.225.167.5.167s.5.075.5.167c0 .091.263.166.583.166.321 0 .584.075.584.167 0 .092.262.167.583.167.407 0 .583.075.583.25 0 .139.148.25.334.25.183 0 .333.075.333.166 0 .092.263.167.583.167.321 0 .584.075.584.167 0 .091.225.166.5.166s.5.075.5.167c0 .092.254.167.565.167.349 0 .602.095.662.25.052.137.248.25.434.25s.339.075.339.166c0 .092.22.167.49.167.269 0 .536.075.593.167.057.091.324.166.593.166.27 0 .49.075.49.167 0 .092.179.167.397.167.218 0 .489.112.603.25.114.137.419.25.678.25.258 0 .516.075.572.166.057.092.249.167.427.167s.323.075.323.167c0 .091.263.166.584.166.32 0 .583.075.583.167 0 .092.225.167.5.167s.5.075.5.166c0 .092.262.167.583.167.408 0 .584.075.584.25 0 .156.157.25.416.25.23 0 .417.075.417.167 0 .091.225.166.5.166s.5.075.5.167c0 .092.262.167.583.167.321 0 .584.075.584.166 0 .092.155.167.345.167.19 0 .458.112.595.25.138.138.47.25.738.25.269 0 .488.075.488.167 0 .091.188.166.417.166.229 0 .417.075.417.167 0 .092.22.167.49.167.269 0 .536.075.593.166.057.092.316.167.575.167.266 0 .515.109.569.25.056.146.305.25.601.25.278 0 .505.075.505.167 0 .091.146.166.323.166.178 0 .37.075.427.167.057.092.324.167.593.167.27 0 .49.075.49.166 0 .092.263.167.584.167.32 0 .583.075.583.167 0 .091.141.166.313.166.172 0 .406.113.52.25.114.138.461.25.771.25.309 0 .563.075.563.167 0 .092.187.167.416.167.23 0 .417.075.417.166 0 .092.225.167.5.167s.5.075.5.167c0 .091.262.166.583.166.408 0 .584.076.584.25 0 .138.113.25.252.25.404 0 1.581.403 1.581.541 0 .069.262.126.583.126.321 0 .584.07.584.156 0 .085.201.179.448.208.42.049.431.07.167.332-.155.154-.282.381-.282.505s-.15.334-.333.466c-.184.132-.334.411-.334.62 0 .209-.08.38-.178.38-.253 0-.655.433-.655.706 0 .127-.15.392-.333.589-.184.196-.334.443-.334.549 0 .105-.187.339-.416.519-.229.18-.417.456-.417.612 0 .156-.15.393-.333.525-.445.32-.448 1-.005 1 .181 0 .65.141 1.042.314.392.173.99.432 1.328.576.935.398 1.075.807.503 1.477-.501.586-1.293 1.696-3.785 5.301-.367.53-1.604 2.288-2.75 3.907a1114.866 1114.866 0 0 0-3.154 4.475c-.589.843-2.507 3.558-4.263 6.033a1336.766 1336.766 0 0 0-4.263 6.037c-.588.846-1.429 2.046-1.869 2.667-.439.621-1.039 1.475-1.333 1.897l-1.451 2.083c-.505.724-.971 1.449-1.038 1.611-.31.756-1.359.359-1.536-.581-.126-.667-.321-1.36-1.583-5.631-.176-.596-.478-1.645-.671-2.333a38.224 38.224 0 0 0-.529-1.75c-.098-.275-.272-.88-.388-1.345-.116-.464-.296-1.003-.4-1.197a1.794 1.794 0 0 1-.189-.708c0-.336-.639-2-.768-2-.033 0-.68.34-1.438.756-.757.415-1.902 1.023-2.544 1.351-2.817 1.439-8.654 5.067-11.165 6.938l-1.5 1.119c-.812.606-4.431 3.65-4.751 3.996-.046.049-.79.727-1.653 1.505-3.173 2.86-8.023 7.93-10.347 10.816-.321.399-.662.81-.758.914-.714.774-4.582 6.298-5.326 7.607-.183.322-.596 1.023-.916 1.557l-.95 1.581c-.202.335-.437.76-.523.943-.087.184-.526.971-.976 1.75-.45.779-.991 1.792-1.203 2.25-.212.459-.561 1.209-.776 1.667-.896 1.909-2.468 6.292-2.819 7.857-.126.564-.302 1.164-.393 1.334-.229.432-.867 3.103-1.036 4.336-.078.566-.258 1.306-.4 1.646-.141.34-.258.938-.258 1.329s-.141 1.413-.313 2.271a30.209 30.209 0 0 0-.423 2.977c-.06.779-.257 2.579-.437 4-.18 1.421-.327 3.114-.327 3.762 0 1.441-.452 4.177-.77 4.663-.192.292-.226 1.434-.19 6.341l.044 5.984 1.625-.004 19.875-.041 18.25-.038v-1.153c0-.634.073-1.178.162-1.208.104-.036.167-7.407.177-20.504.01-13.923.069-20.466.187-20.505.111-.037.205-1.88.265-5.177l.093-5.12h1.131c.622 0 1.178-.075 1.235-.167.063-.102 1.393-.166 3.434-.166 3.623 0 4.149.147 4.149 1.159 0 .187.075.341.167.341.091 0 .166.115.166.257 0 .141.188.459.417.707.229.247.417.543.417.659 0 .115.075.21.166.21.092 0 .167.105.167.234 0 .394.714 1.599.948 1.599.122 0 .219.184.219.417 0 .229.075.417.166.417.092 0 .167.133.167.296 0 .163.15.405.333.537.184.132.334.379.334.549 0 .169.093.413.208.54.527.588.625.75.625 1.034 0 .167.15.412.333.544.184.132.334.324.334.428 0 .34.477 1.151.825 1.4.188.135.341.416.341.625 0 .209.075.38.167.38.092 0 .167.15.167.333 0 .184.075.334.166.334.092 0 .167.094.167.21 0 .115.188.412.417.659.229.247.416.565.416.707 0 .141.075.257.167.257.092 0 .167.155.167.345 0 .19.093.45.208.578.495.551.625.74.625.903a.17.17 0 0 0 .167.174c.091 0 .166.15.166.333 0 .184.075.334.167.334.092 0 .167.15.167.333 0 .183.075.333.166.333.092 0 .167.081.167.179 0 .098.094.283.208.411.511.57.625.744.625.955 0 .124.15.387.334.584.183.196.333.473.333.614 0 .142.075.257.167.257.091 0 .166.153.166.339 0 .186.113.382.25.434a.43.43 0 0 1 .25.375c0 .153.15.387.334.519.183.132.333.411.333.62 0 .209.075.38.167.38.091 0 .166.15.166.333 0 .186.111.334.25.334a.25.25 0 0 1 .25.25c0 .137.075.25.167.25.092 0 .167.15.167.333 0 .183.075.333.166.333.092 0 .167.101.167.225 0 .372.462 1.176.825 1.437.188.135.342.416.342.625 0 .209.075.38.166.38.092 0 .167.15.167.333 0 .184.061.334.136.334.074 0 .261.262.414.583.153.321.354.583.447.583.093 0 .17.15.17.334 0 .183.075.333.166.333.092 0 .167.136.167.302 0 .166.15.463.333.66.184.196.334.475.334.62 0 .144.112.305.25.358.137.052.25.203.25.335 0 .131.15.4.333.597.183.197.333.493.333.659 0 .166.075.302.167.302.092 0 .167.15.167.334 0 .185.111.333.25.333.137 0 .25.136.25.302 0 .166.15.463.333.66.183.196.333.473.333.614 0 .142.075.257.167.257.092 0 .168.132.17.292.001.16.189.468.416.684.228.216.414.535.414.708 0 .174.075.316.167.316.091 0 .166.15.166.334 0 .183.075.333.167.333.092 0 .167.116.167.257 0 .142.187.46.416.707.23.247.417.544.417.659 0 .116.075.21.167.21.091 0 .166.094.166.209-.001.365.742 1.625.958 1.625.115 0 .209.187.209.416 0 .23.075.417.167.417.091 0 .166.116.166.257 0 .141.15.418.334.615.183.197.333.493.333.659 0 .166.112.302.25.302.139 0 .25.148.25.334 0 .183.075.333.167.333.091 0 .166.15.166.333 0 .184.075.334.167.334.092 0 .167.112.167.25 0 .137.075.25.166.25.092 0 .167.152.167.338 0 .186.112.382.25.435.137.052.25.221.25.374 0 .154.15.387.333.519.184.132.334.412.334.62 0 .209.075.38.166.38.092 0 .167.118.167.262 0 .144.094.367.208.494.495.552.625.74.625.904a.17.17 0 0 0 .167.174c.092 0 .167.15.167.333 0 .183.057.333.127.333s.201.169.291.375l.165.375 8-.047 22.042-.127 14.041-.081v-.581c0-.319-.075-.58-.166-.58-.092 0-.167-.15-.167-.334 0-.183-.075-.333-.167-.333-.091 0-.166-.109-.166-.242 0-.134-.188-.43-.417-.66-.229-.229-.417-.57-.417-.757 0-.188-.075-.341-.166-.341-.092 0-.167-.15-.167-.333 0-.184-.075-.334-.167-.334-.091 0-.166-.115-.166-.255a.412.412 0 0 0-.25-.351c-.138-.053-.25-.2-.25-.328s-.075-.232-.167-.232c-.092 0-.167-.15-.167-.334 0-.183-.075-.333-.166-.333-.092 0-.167-.187-.167-.417 0-.229-.075-.416-.167-.416-.091 0-.168-.094-.169-.209-.002-.114-.189-.385-.417-.6-.227-.216-.414-.535-.414-.709 0-.174-.075-.316-.166-.316-.092 0-.167-.15-.167-.333 0-.183-.075-.333-.167-.333-.091 0-.166-.107-.166-.237 0-.297-.541-1.261-.709-1.262-.068-.001-.125-.114-.125-.251 0-.138-.075-.25-.166-.25-.092 0-.167-.15-.167-.334 0-.183-.075-.333-.167-.333-.091 0-.166-.15-.166-.333 0-.184-.075-.334-.167-.334-.092 0-.167-.109-.167-.242s-.187-.43-.416-.659c-.229-.229-.417-.57-.417-.758 0-.187-.075-.341-.167-.341-.091 0-.166-.15-.166-.333 0-.183-.075-.333-.167-.333-.092 0-.167-.142-.167-.316 0-.173-.112-.359-.25-.411-.137-.053-.25-.232-.25-.398s-.15-.41-.333-.542c-.183-.132-.333-.411-.333-.62 0-.209-.075-.38-.167-.38-.092 0-.167-.15-.167-.333 0-.186-.111-.334-.25-.334-.137 0-.25-.136-.25-.302 0-.166-.15-.462-.333-.659-.183-.197-.333-.474-.333-.615 0-.141-.075-.257-.167-.257-.092 0-.167-.155-.167-.345 0-.19-.093-.45-.208-.578-.518-.578-.625-.746-.625-.987 0-.141-.075-.257-.167-.257-.091 0-.166-.112-.166-.25 0-.137-.075-.25-.167-.25-.092 0-.167-.15-.167-.333 0-.183-.075-.333-.166-.333-.092 0-.168-.132-.17-.292-.001-.16-.189-.468-.417-.684-.227-.216-.413-.535-.413-.708 0-.174-.075-.316-.167-.316-.092 0-.167-.15-.167-.334 0-.183-.075-.333-.166-.333-.092 0-.167-.152-.167-.339 0-.186-.113-.381-.25-.434a.428.428 0 0 1-.25-.375c0-.153-.15-.387-.333-.519-.184-.132-.334-.411-.334-.62 0-.209-.075-.38-.166-.38-.092 0-.167-.15-.167-.333 0-.183-.07-.333-.155-.333-.086 0-.208-.163-.271-.363a2.244 2.244 0 0 0-.428-.698c-.172-.184-.313-.434-.313-.554 0-.12-.075-.219-.166-.219-.092 0-.167-.187-.167-.416 0-.229-.075-.417-.167-.417-.091 0-.166-.115-.166-.255a.41.41 0 0 0-.25-.351.433.433 0 0 1-.25-.38c0-.157-.15-.445-.334-.642-.183-.197-.333-.425-.333-.506 0-.275-.523-1.199-.679-1.199-.085 0-.154-.15-.154-.334 0-.183-.075-.333-.167-.333-.092 0-.167-.112-.167-.25s-.075-.25-.166-.25c-.092 0-.167-.15-.167-.333 0-.184-.075-.334-.167-.334-.091 0-.166-.152-.166-.338 0-.186-.113-.382-.25-.435-.138-.052-.25-.238-.25-.411 0-.174-.061-.316-.136-.316-.074 0-.238-.262-.364-.583-.126-.321-.29-.583-.365-.583-.074 0-.135-.15-.135-.334 0-.183-.067-.333-.149-.333-.082 0-.196-.187-.253-.417-.058-.229-.178-.416-.268-.416-.09 0-.164-.134-.164-.297 0-.163-.15-.405-.333-.537-.183-.132-.333-.411-.333-.62 0-.209-.075-.38-.167-.38-.092 0-.167-.115-.167-.255a.41.41 0 0 0-.25-.351c-.137-.053-.25-.269-.25-.481 0-.212-.058-.41-.13-.44-.199-.085-.87-1.293-.87-1.566a.246.246 0 0 0-.25-.24c-.139 0-.25-.148-.25-.333 0-.184-.075-.334-.166-.334-.092 0-.167-.136-.167-.302 0-.166-.15-.462-.333-.659-.184-.197-.334-.476-.334-.62a.414.414 0 0 0-.25-.358c-.137-.053-.25-.238-.25-.412 0-.173-.075-.315-.166-.315-.092 0-.167-.15-.167-.334 0-.183-.075-.333-.167-.333-.091 0-.166-.112-.166-.25s-.075-.25-.167-.25c-.092 0-.167-.15-.167-.333 0-.184-.075-.334-.166-.334-.092 0-.167-.152-.167-.338 0-.186-.113-.382-.25-.435a.427.427 0 0 1-.25-.374c0-.154-.15-.387-.333-.519-.184-.132-.334-.412-.334-.62 0-.209-.075-.38-.166-.38-.092 0-.167-.15-.167-.334 0-.185-.111-.333-.25-.333-.156 0-.25-.157-.25-.417 0-.229-.075-.416-.167-.416-.091 0-.166-.116-.166-.257 0-.142-.15-.418-.334-.615-.183-.197-.333-.494-.333-.66 0-.166-.113-.302-.25-.302-.139 0-.25-.148-.25-.333 0-.183-.075-.333-.167-.333-.091 0-.166-.188-.166-.417 0-.229-.061-.417-.136-.417-.075 0-.261-.262-.414-.583-.153-.321-.354-.583-.448-.583-.093 0-.169-.15-.169-.334 0-.183-.075-.333-.167-.333-.091 0-.166-.11-.166-.245s-.15-.512-.334-.838c-.183-.327-.333-.629-.333-.672 0-.043.15-.078.333-.078.186 0 .334-.111.334-.25 0-.168.167-.25.507-.25.278 0 .668-.15.864-.334.197-.183.494-.333.66-.333.166 0 .302-.075.302-.167 0-.091.15-.166.333-.166.184 0 .334-.075.334-.167 0-.092.152-.167.338-.167.186 0 .382-.112.435-.25a.429.429 0 0 1 .374-.25c.154 0 .387-.15.519-.333.132-.183.379-.333.549-.333.338 0 .785-.373.785-.655 0-.098.15-.179.333-.179.183 0 .333-.075.333-.166 0-.092.113-.167.25-.167.138 0 .25-.075.25-.167 0-.091.118-.166.262-.166.3 0 .738-.39.738-.655 0-.098.155-.179.343-.179.189 0 .676-.337 1.083-.75.406-.412.818-.75.914-.75.097 0 .346-.168.555-.375a9.3 9.3 0 0 1 .825-.706c.246-.182.447-.392.447-.466 0-.157.769-.953.921-.953.133 0 .579-.445.579-.579 0-.134.787-.921.921-.921.149 0 .578-.452.583-.613.002-.075.264-.361.583-.635.319-.274.58-.593.58-.708 0-.116.075-.21.166-.21a.17.17 0 0 0 .167-.173c0-.094.262-.434.583-.755.321-.321.584-.657.584-.746 0-.09.225-.398.5-.686.275-.288.5-.624.5-.747 0-.201.37-.711.958-1.32a.87.87 0 0 0 .208-.525c0-.169.15-.416.334-.548.183-.132.333-.376.333-.542 0-.166.112-.345.25-.398.137-.053.25-.238.25-.411 0-.174.075-.316.167-.316.091 0 .166-.146.166-.323 0-.178.075-.37.167-.427.092-.057.167-.249.167-.427 0-.177.075-.323.166-.323.092 0 .167-.15.167-.333 0-.184.061-.334.135-.334.165 0 .698-1.179.698-1.546 0-.147.075-.314.167-.37.092-.057.167-.249.167-.427s.075-.323.166-.323c.092 0 .167-.263.167-.584 0-.321.075-.583.167-.583.091 0 .166-.217.166-.482 0-.275.108-.524.25-.578.146-.056.25-.306.25-.601 0-.278.075-.506.167-.506.092 0 .167-.337.167-.75 0-.412.075-.75.166-.75.092 0 .167-.262.167-.583 0-.321.075-.583.167-.583.091 0 .166-.306.166-.679 0-.381.11-.788.25-.928.16-.161.25-.572.25-1.145 0-.493.075-.942.167-.998.092-.057.167-.586.167-1.177 0-.604.072-1.073.166-1.073.1 0 .167-.664.167-1.657 0-.925.074-1.703.167-1.76.228-.141.228-10.583 0-10.583-.1 0-.167-.667-.167-1.667s-.067-1.667-.167-1.667c-.095 0-.166-.5-.166-1.166 0-.667-.072-1.167-.167-1.167-.094 0-.167-.465-.167-1.063 0-.741-.075-1.126-.25-1.27-.152-.127-.25-.492-.25-.937 0-.402-.075-.73-.166-.73-.092 0-.167-.263-.167-.583 0-.321-.075-.584-.167-.584-.091 0-.166-.337-.166-.75 0-.412-.075-.75-.167-.75-.092 0-.167-.227-.167-.505 0-.295-.104-.545-.25-.601-.142-.055-.25-.303-.25-.578 0-.265-.075-.482-.166-.482-.092 0-.167-.183-.167-.407 0-.224-.075-.453-.167-.51-.091-.057-.166-.282-.166-.5 0-.218-.075-.443-.167-.5-.092-.057-.167-.249-.167-.427 0-.177-.075-.323-.166-.323-.092 0-.167-.142-.167-.316 0-.173-.113-.358-.25-.411-.138-.053-.25-.272-.25-.486 0-.215-.15-.552-.333-.749-.184-.196-.334-.511-.334-.698 0-.187-.075-.34-.166-.34-.092 0-.167-.15-.167-.333 0-.186-.111-.334-.25-.334-.149 0-.25-.153-.25-.38 0-.208-.15-.488-.333-.62-.184-.132-.336-.355-.339-.495-.007-.33-.394-.838-.638-.838-.105 0-.19-.133-.19-.297 0-.163-.15-.404-.333-.536-.184-.132-.334-.355-.334-.495 0-.313-.717-1.172-.977-1.172-.104 0-.189-.113-.189-.25 0-.138-.075-.25-.167-.25-.092 0-.167-.116-.167-.257 0-.281-3.72-4.076-3.996-4.076a.175.175 0 0 1-.17-.179c0-.232-.305-.514-.875-.808-.252-.13-.459-.299-.459-.375 0-.076-.112-.138-.25-.138-.137 0-.25-.081-.25-.179 0-.265-.438-.655-.738-.655-.144 0-.262-.075-.262-.166a.17.17 0 0 0-.174-.167c-.096 0-.355-.169-.575-.375-.669-.625-.895-.792-1.077-.792a.17.17 0 0 1-.174-.166c0-.092-.15-.167-.333-.167-.183 0-.333-.075-.333-.167 0-.091-.156-.166-.346-.166-.369 0-.821-.361-.821-.655 0-.098-.15-.179-.333-.179-.184 0-.334-.075-.334-.166 0-.092-.187-.167-.416-.167-.229 0-.417-.075-.417-.167 0-.091-.15-.166-.333-.166-.184 0-.334-.075-.334-.167 0-.092-.08-.167-.178-.167-.098 0-.291-.112-.429-.25a.941.941 0 0 0-.571-.25c-.177 0-.322-.075-.322-.166 0-.092-.187-.167-.416-.167-.229 0-.417-.075-.417-.167 0-.091-.15-.166-.333-.166-.184 0-.334-.075-.334-.167 0-.092-.155-.167-.345-.167a.967.967 0 0 1-.595-.25.946.946 0 0 0-.572-.25c-.176 0-.321-.075-.321-.166 0-.092-.187-.167-.417-.167-.229 0-.416-.075-.416-.167 0-.091-.221-.166-.49-.166-.27 0-.537-.075-.594-.167-.056-.092-.315-.167-.575-.167-.266 0-.514-.109-.568-.25-.056-.146-.306-.25-.601-.25-.278 0-.506-.075-.506-.166 0-.092-.262-.167-.583-.167-.321 0-.583-.075-.583-.167 0-.091-.296-.166-.657-.166-.361 0-.703-.075-.76-.167-.057-.092-.324-.167-.593-.167-.27 0-.49-.075-.49-.166 0-.092-.405-.167-.899-.167-.645 0-.926-.071-.995-.25-.063-.164-.323-.25-.758-.25-.364 0-.708-.075-.765-.167-.057-.091-.511-.166-1.01-.166s-.907-.075-.907-.167c0-.094-.472-.167-1.083-.167s-1.083-.072-1.083-.166c0-.097-.53-.167-1.256-.167-.962 0-1.277-.058-1.351-.25-.073-.192-.392-.25-1.378-.25-.803 0-1.36-.078-1.49-.208-.165-.165-7.398-.219-34.784-.257L69.833-.013l-.025 35.923M17.333 1.5c0 .092-.412.167-.916.167-.505 0-.917.075-.917.166 0 .092-.338.167-.75.167-.556 0-.75.065-.75.25 0 .175-.176.25-.583.25-.321 0-.584.075-.584.167 0 .091-.22.166-.49.166-.269 0-.536.075-.593.167-.057.092-.249.167-.427.167-.177 0-.323.075-.323.166 0 .092-.15.167-.333.167-.184 0-.334.075-.334.167 0 .091-.109.166-.242.166s-.43.188-.659.417c-.229.229-.554.417-.721.417-.167 0-.412.15-.544.333-.132.183-.339.333-.459.333s-.262.113-.314.25c-.053.138-.166.25-.251.25-.211 0-1.31 1.114-1.31 1.328a.172.172 0 0 1-.172.172c-.309 0-1.328 1.147-1.328 1.495 0 .186-.08.339-.178.339-.266 0-.655.438-.655.738 0 .144-.075.262-.167.262-.091 0-.166.112-.166.25 0 .137-.075.25-.167.25-.092 0-.167.15-.167.333 0 .183-.075.333-.166.333-.092 0-.167.18-.167.399 0 .22-.113.442-.25.495-.138.053-.25.286-.25.518 0 .232-.075.422-.167.422-.091 0-.166.262-.166.583 0 .321-.075.583-.167.583-.092 0-.167.263-.167.584 0 .32-.075.583-.166.583-.092 0-.169.431-.172.958-.003.577-.103 1.087-.25 1.282-.253.334-.391 26.186-.144 26.83.134.348 57.852.411 58.199.063.149-.149.2-2.026.2-7.416V30H41.167v-6.073c0-3.87-.061-6.111-.167-6.177-.092-.057-.167-.502-.167-.989 0-.585-.085-.957-.25-1.094-.152-.127-.25-.492-.25-.937 0-.402-.075-.73-.166-.73-.092 0-.167-.187-.167-.417 0-.229-.075-.416-.167-.416-.091 0-.166-.225-.166-.5s-.075-.5-.167-.5c-.092 0-.167-.107-.167-.237 0-.297-.54-1.261-.708-1.262-.069-.001-.125-.114-.125-.251 0-.138-.075-.25-.167-.25-.091 0-.166-.116-.166-.258 0-.142-.188-.445-.417-.674-.229-.229-.417-.482-.417-.561 0-.166-2.583-2.841-2.743-2.841-.115 0-.4-.224-1.007-.791-.221-.207-.517-.375-.659-.375-.141 0-.257-.075-.257-.167 0-.092-.113-.167-.25-.167-.138 0-.251-.056-.251-.125-.002-.167-.965-.708-1.263-.708-.13 0-.236-.075-.236-.167 0-.091-.225-.166-.5-.166s-.5-.075-.5-.167c0-.092-.188-.167-.417-.167-.229 0-.417-.075-.417-.166 0-.092-.254-.167-.565-.167-.349 0-.602-.096-.662-.25-.063-.165-.324-.25-.767-.25-.37 0-.672-.075-.672-.167 0-.091-.413-.166-.917-.166s-.917-.075-.917-.167c0-.106-1.277-.167-3.5-.167-2.222 0-3.5.061-3.5.167m6 15.25c0 .167.167.25.5.25.275 0 .5.075.5.167 0 .091.171.166.38.166s.488.15.62.334c.132.183.412.333.62.333.209 0 .38.096.38.213 0 .117.15.322.334.454.183.132.333.373.333.536 0 .164.075.297.167.297.091 0 .169.131.172.292.003.16.115.437.25.615.134.178.244.459.244.625 0 .166.075.301.167.301.107 0 .167 1.556.167 4.334V30h-14.5v-4.5c0-2.889.059-4.5.166-4.5.092 0 .167-.187.167-.417 0-.229.075-.416.167-.416.091 0 .166-.15.166-.334 0-.183.075-.333.167-.333.092 0 .167-.15.167-.333 0-.186.111-.334.25-.334.137 0 .25-.056.25-.125 0-.257.799-1.041 1.061-1.041.149 0 .272-.075.272-.167 0-.092.188-.167.417-.167.229 0 .416-.075.416-.166 0-.092.228-.167.506-.167.295 0 .545-.104.601-.25.143-.373 4.893-.373 4.893 0m1.561 33.5c-.073.189-.378.25-1.245.25-.655 0-1.149.072-1.149.167 0 .091-.338.166-.75.166-.413 0-.75.075-.75.167 0 .092-.225.167-.5.167s-.5.075-.5.166c0 .092-.263.167-.583.167-.408 0-.584.075-.584.25s-.176.25-.583.25c-.321 0-.583.075-.583.167 0 .091-.15.166-.334.166-.183 0-.333.075-.333.167 0 .092-.187.167-.417.167-.229 0-.416.075-.416.166 0 .092-.15.167-.334.167-.185 0-.333.111-.333.25 0 .156-.157.25-.417.25-.229 0-.416.075-.416.167 0 .091-.134.166-.297.166-.163 0-.405.15-.537.334-.132.183-.379.333-.548.333a.945.945 0 0 0-.541.208c-.5.449-.734.625-.828.625-.054 0-.285.188-.514.417-.23.229-.48.417-.558.417-.208 0-2.011 1.782-2.011 1.989a.175.175 0 0 1-.172.177c-.224 0-1.328 1.104-1.328 1.328a.173.173 0 0 1-.174.172c-.267 0-.992.786-.992 1.076 0 .142-.075.258-.167.258-.092 0-.167.112-.167.25 0 .137-.106.25-.236.25s-.335.225-.457.5-.278.5-.347.5c-.07 0-.126.112-.126.25 0 .137-.075.25-.167.25-.092 0-.167.15-.167.333 0 .183-.073.333-.163.333-.09 0-.211.188-.268.417-.058.229-.158.417-.222.417-.158 0-.847 1.302-.847 1.599 0 .129-.075.234-.166.234-.092 0-.167.217-.167.482 0 .275-.107.524-.25.578-.138.053-.25.249-.25.435s-.075.338-.167.338c-.091 0-.166.263-.166.584 0 .32-.075.583-.167.583-.092 0-.167.188-.167.417 0 .229-.075.416-.166.416-.092 0-.167.268-.167.596 0 .327-.113.707-.25.845-.138.137-.25.529-.25.871 0 .342-.094.715-.208.83-.303.303-.303 13.716 0 13.817.124.041.208.362.208.793 0 .422.104.829.25.975.138.137.25.48.25.761 0 .282.075.512.167.512.091 0 .166.225.166.5s.075.5.167.5c.092 0 .167.263.167.584 0 .32.075.583.166.583.092 0 .167.152.167.339 0 .186.112.381.25.434.143.055.25.303.25.578 0 .265.075.482.167.482.091 0 .166.15.166.334 0 .183.075.333.167.333.092 0 .167.112.167.25s.075.25.166.25c.092 0 .167.15.167.333 0 .184.067.334.149.334.081 0 .195.187.253.416.057.23.178.417.268.417.09 0 .163.15.163.333 0 .184.065.334.144.334.079 0 .322.337.541.75.219.412.492.75.607.75.114 0 .208.112.208.25 0 .137.063.25.139.25.076 0 .245.206.375.458.294.57.575.875.808.875.098 0 .178.077.178.172 0 .224 1.104 1.328 1.328 1.328.095 0 .172.077.172.172 0 .179 1.083 1.328 1.252 1.328.108 0 .223.092 1.156.918.362.32.761.582.887.582.272 0 .705.402.705.655 0 .098.171.178.38.178s.488.15.62.334c.132.183.374.333.537.333.163 0 .297.075.297.167 0 .091.187.166.416.166.26 0 .417.095.417.25 0 .139.148.25.333.25.184 0 .334.075.334.167 0 .092.187.167.416.167.23 0 .417.075.417.166 0 .092.183.167.407.167.224 0 .453.075.51.167.056.091.278.166.492.166.214 0 .432.113.485.25.056.146.305.25.601.25.278 0 .505.075.505.167 0 .092.221.167.49.167.27 0 .537.075.593.166.057.092.399.167.76.167s.657.075.657.167c0 .094.474.166 1.089.166.703 0 1.229.092 1.484.259.522.342 8.771.295 8.885-.05.047-.14.448-.209 1.223-.209.657 0 1.152-.071 1.152-.166 0-.092.338-.167.75-.167.413 0 .75-.075.75-.167 0-.091.221-.166.49-.166.27 0 .537-.075.594-.167.056-.092.318-.167.581-.167.263 0 .591-.112.728-.25a.978.978 0 0 1 .595-.25c.19 0 .346-.075.346-.166 0-.092.15-.167.333-.167.183 0 .333-.075.333-.167 0-.091.263-.166.584-.166.32 0 .583-.075.583-.167 0-.092.142-.167.316-.167.173 0 .358-.112.411-.25.053-.137.248-.25.434-.25.187 0 .339-.075.339-.166 0-.092.15-.167.333-.167.184 0 .334-.075.334-.167 0-.091.112-.166.25-.166.137 0 .25-.075.25-.167 0-.092.15-.167.333-.167.183 0 .333-.08.333-.178 0-.272.442-.655.755-.655.153 0 .488-.225.745-.5s.547-.5.645-.5c.098 0 .44-.263.761-.583.321-.321.629-.584.684-.584.131 0 .577-.446.577-.577 0-.172 1.146-1.256 1.328-1.256.094 0 .172-.082.172-.183 0-.101.337-.502.75-.892.413-.389.75-.802.75-.916 0-.115.225-.419.5-.676.275-.257.5-.624.5-.817 0-.192.106-.349.236-.349s.336-.225.457-.5c.122-.275.278-.5.348-.5.069 0 .126-.188.126-.417 0-.229.066-.417.146-.417.081 0 .358-.417.616-.927.258-.509.53-.964.603-1.009.074-.046.135-.304.135-.574 0-.269.075-.49.166-.49.092 0 .167-.15.167-.333 0-.183.075-.333.167-.333.091 0 .166-.263.166-.584 0-.407.076-.583.25-.583.175 0 .25-.176.25-.583 0-.321.075-.584.167-.584.092 0 .167-.262.167-.583 0-.321.075-.583.166-.583.092 0 .167-.333.167-.74 0-.408.075-.787.167-.844.091-.056.166-.69.166-1.408 0-1.007.058-1.328.25-1.402.212-.081.25-.667.25-3.856s-.038-3.775-.25-3.857c-.194-.074-.25-.405-.25-1.494 0-.822-.068-1.399-.166-1.399-.092 0-.167-.338-.167-.75 0-.413-.075-.75-.167-.75-.091 0-.166-.263-.166-.584 0-.321-.075-.583-.167-.583-.092 0-.167-.263-.167-.583 0-.408-.075-.584-.25-.584-.174 0-.25-.176-.25-.583 0-.321-.075-.583-.166-.583-.092 0-.167-.15-.167-.334 0-.183-.075-.333-.167-.333-.091 0-.165-.169-.164-.375.003-.424-.768-2.036-1.211-2.529-.16-.179-.291-.461-.291-.627 0-.166-.075-.302-.167-.302-.092 0-.167-.118-.167-.262 0-.3-.389-.738-.654-.738-.099 0-.179-.158-.179-.35 0-.193-.225-.56-.5-.817-.275-.257-.5-.561-.5-.675 0-.115-.337-.527-.75-.917s-.75-.791-.75-.891c0-.101-.078-.184-.172-.184-.182 0-1.328-1.084-1.328-1.256 0-.131-.446-.577-.578-.577-.056 0-.396-.3-.755-.667-.36-.366-.728-.666-.819-.666-.092 0-.354-.188-.583-.417-.229-.229-.57-.417-.757-.417-.188 0-.341-.08-.341-.178 0-.266-.439-.655-.738-.655-.144 0-.262-.075-.262-.167 0-.091-.113-.166-.25-.166-.138 0-.25-.075-.25-.167 0-.092-.15-.167-.334-.167-.183 0-.333-.075-.333-.166 0-.092-.142-.167-.316-.167-.173 0-.358-.113-.411-.25-.053-.138-.248-.25-.434-.25-.187 0-.339-.075-.339-.167 0-.091-.187-.166-.417-.166-.229 0-.416-.075-.416-.167 0-.092-.225-.167-.5-.167s-.5-.075-.5-.166c0-.092-.18-.167-.399-.167-.22 0-.439-.104-.487-.23-.049-.127-.357-.277-.685-.334a349.87 349.87 0 0 1-1.179-.204c-.321-.056-.584-.169-.584-.25 0-.082-.258-.149-.573-.149-.316 0-.62-.075-.677-.166-.056-.092-.653-.167-1.325-.167-.933 0-1.245-.059-1.318-.25-.144-.376-8.902-.376-9.046 0M241.75 51c-.06.097-.974.167-2.177.167-1.14 0-2.073.067-2.073.149 0 .082-.65.176-1.445.209-.96.04-1.467.129-1.514.267-.041.124-.365.208-.805.208-.405 0-.736.075-.736.167 0 .091-.338.166-.75.166s-.75.068-.75.151c0 .083-.356.191-.792.241-1.499.172-2.067.315-2.155.545-.051.133-.327.23-.654.23-.311 0-.566.075-.566.167 0 .091-.225.166-.5.166s-.5.075-.5.167c0 .092-.188.167-.419.167-.23 0-.549.066-.708.147a9.38 9.38 0 0 1-1.498.603c-.206.058-.375.175-.375.261 0 .085-.187.155-.416.155-.229 0-.417.075-.417.167 0 .092-.15.167-.333.167-.184 0-.334.075-.334.166 0 .092-.135.167-.3.167-.452 0-1.197.389-1.198.625-.001.115-.189.208-.418.208-.229 0-.417.075-.417.167 0 .092-.15.167-.333.167-.184 0-.334.075-.334.166 0 .092-.187.167-.416.167-.229 0-.417.075-.417.167 0 .091-.15.166-.333.166-.186 0-.334.111-.334.25s-.148.25-.333.25c-.183 0-.333.075-.333.167 0 .092-.113.167-.25.167-.138 0-.25.075-.25.166 0 .092-.15.167-.334.167-.183 0-.333.075-.333.167 0 .091-.094.168-.208.17-.115.001-.508.264-.874.583-.365.319-.762.58-.882.58s-.398.169-.619.375c-.641.599-.894.792-1.04.792-.075 0-.245.15-.377.333-.132.183-.335.333-.45.333-.116 0-.657.432-1.203.959-1.124 1.085-1.46 1.375-1.591 1.375-.174 0-3.589 3.464-3.589 3.641 0 .097-.488.674-1.084 1.282-.596.607-1.083 1.248-1.083 1.424 0 .176-.078.319-.174.319-.273 0-.993.789-.993 1.088 0 .306-.386.746-.654.746-.099 0-.179.15-.179.333 0 .183-.075.333-.167.333-.091 0-.166.113-.166.25 0 .138-.075.25-.167.25-.092 0-.167.105-.167.233s-.186.409-.413.625c-.228.216-.416.524-.417.684-.002.16-.064.292-.139.292-.074 0-.238.262-.364.583-.126.321-.29.583-.364.583-.075 0-.136.15-.136.334 0 .183-.056.333-.125.334-.168.001-.708.965-.708 1.263 0 .13-.075.236-.167.236-.092 0-.167.15-.167.333 0 .184-.075.334-.166.334-.092 0-.167.187-.167.416 0 .23-.075.417-.167.417-.091 0-.166.142-.166.316 0 .173-.113.358-.25.411-.138.053-.25.244-.25.425 0 .18-.075.375-.167.431-.092.057-.167.324-.167.594 0 .269-.075.49-.166.49-.092 0-.167.225-.167.5s-.075.5-.167.5c-.091 0-.166.155-.166.345 0 .19-.113.458-.25.595-.138.138-.25.39-.25.562 0 .171-.075.358-.167.414-.092.057-.167.399-.167.76s-.075.657-.166.657c-.092 0-.167.263-.167.583 0 .321-.075.584-.167.584-.091 0-.166.247-.166.55 0 .302-.089.638-.196.746-.19.189-.393 1.137-.58 2.704-.05.412-.158.821-.24.908-.083.087-.151.631-.151 1.208 0 .589-.073 1.05-.167 1.05-.103 0-.166.917-.166 2.417 0 1.5-.064 2.417-.167 2.417-.106 0-.167 1.389-.167 3.833s.061 3.833.167 3.833c.103 0 .167.917.167 2.417 0 1.5.063 2.417.166 2.417.094 0 .167.469.167 1.073 0 .591.075 1.12.167 1.177.091.056.166.469.166.916 0 .448.075.86.167.917.092.057.167.431.167.831 0 .425.104.833.25.979.14.14.25.547.25.928 0 .373.075.679.166.679.092 0 .167.262.167.583 0 .321.075.583.167.583.091 0 .166.221.166.49 0 .27.075.537.167.594.092.056.167.323.167.593 0 .324.084.49.25.49.174 0 .25.176.25.583 0 .321.075.584.166.584.092 0 .167.225.167.5s.075.5.167.5c.091 0 .166.187.166.416 0 .23.075.417.167.417.092 0 .167.15.167.333 0 .186.111.334.25.334.174 0 .25.176.25.583 0 .321.075.583.166.583.092 0 .167.146.167.324 0 .178.075.37.167.426.091.057.166.249.166.427s.075.323.167.323c.092 0 .167.15.167.334 0 .183.07.333.155.333.086 0 .209.169.274.375a1.7 1.7 0 0 0 .428.645c.17.148.309.429.309.625 0 .195.075.355.167.355.092 0 .167.118.167.262 0 .299.389.738.654.738.099 0 .179.171.179.38s.15.488.333.62c.184.132.334.379.334.549 0 .338.372.784.654.784.099 0 .179.15.179.334 0 .183.075.333.167.333.091 0 .166.112.166.25 0 .137.057.25.126.25.07 0 .226.225.348.5.121.275.327.5.457.5s.236.082.236.183c0 .101.225.393.5.65s.5.587.5.734c0 .146.112.266.25.266.137 0 .25.077.25.171 0 .297 4.072 4.259 4.631 4.507.295.13.536.297.536.371 0 .195.788.951.992.951a.17.17 0 0 1 .174.167c0 .092.15.167.334.167.183 0 .333.08.333.178 0 .231.424.655.655.655.098 0 .178.075.178.167 0 .091.133.166.294.166.162 0 .435.188.607.417.172.229.436.417.586.417.15 0 .381.15.513.333.132.183.374.333.537.333.163 0 .297.075.297.167 0 .092.08.167.178.167.098 0 .283.093.411.208.57.511.744.625.956.625.124 0 .386.15.583.333.197.184.473.334.615.334.141 0 .257.075.257.166 0 .092.187.167.416.167.26 0 .417.094.417.25 0 .139.148.25.333.25.184 0 .334.075.334.167 0 .091.187.166.416.166.23 0 .417.075.417.167 0 .092.15.167.333.167.184 0 .334.075.334.166 0 .092.155.167.345.167.19 0 .458.112.595.25.138.137.395.25.572.25.176 0 .321.075.321.167 0 .091.188.166.417.166.229 0 .416.075.416.167 0 .092.225.167.5.167s.5.075.5.166c0 .092.255.167.566.167.349 0 .602.096.661.25.056.146.306.25.601.25.278 0 .506.075.506.167 0 .091.145.166.323.166.178 0 .37.075.427.167.056.092.398.167.76.167.361 0 .656.075.656.166 0 .092.296.167.657.167.361 0 .703.075.76.167.057.091.353.166.659.166.34 0 .593.097.651.25.068.177.343.25.935.25.461 0 .838.075.838.167 0 .092.413.167.917.167s.917.075.917.166c0 .092.408.167.906.167.499 0 .954.075 1.01.167.058.092.829.166 1.742.166 1.303 0 1.659.052 1.735.25.145.378 14.794.378 15.107 0 .157-.189.584-.25 1.77-.25.931 0 1.563-.067 1.563-.166 0-.094.472-.167 1.083-.167s1.084-.073 1.084-.167c0-.091.37-.166.823-.166.453 0 .87-.075.927-.167.056-.092.513-.167 1.015-.167.657 0 .939-.07 1.008-.25.062-.163.322-.25.744-.25.357 0 .649-.075.649-.166 0-.092.3-.167.667-.167.367 0 .667-.075.667-.167 0-.091.295-.166.656-.166.362 0 .704-.075.76-.167.057-.092.324-.167.594-.167.269 0 .49-.075.49-.166 0-.092.227-.167.505-.167.295 0 .545-.104.601-.25.065-.17.331-.25.828-.25.403 0 .732-.075.732-.167 0-.091.15-.166.334-.166.183 0 .333-.075.333-.167 0-.092.262-.167.583-.167.321 0 .584-.075.584-.166 0-.092.227-.167.505-.167.295 0 .545-.104.601-.25.053-.138.238-.25.411-.25.174 0 .316-.075.316-.167 0-.091.262-.166.583-.166.321 0 .584-.075.584-.167 0-.092.15-.167.333-.167.183 0 .333-.075.333-.166 0-.092.179-.167.397-.167.218 0 .489-.113.603-.25a.777.777 0 0 1 .521-.25c.172 0 .313-.075.313-.167 0-.091.187-.166.416-.166.23 0 .417-.075.417-.167 0-.092.146-.167.323-.167.178 0 .37-.075.427-.166.057-.092.249-.167.427-.167.177 0 .323-.075.323-.167 0-.091.15-.166.333-.166.186 0 .334-.111.334-.25 0-.156.157-.25.416-.25.23 0 .417-.075.417-.167 0-.092.15-.167.333-.167.184 0 .334-.075.334-.166 0-.092.131-.169.291-.172.361-.007.875-.382.875-.638 0-.105.188-.19.417-.19.229 0 .417-.075.417-.167 0-.092.15-.167.333-.167.183 0 .333-.061.333-.135 0-.075.263-.239.584-.365.32-.126.583-.327.583-.447 0-.121.15-.219.333-.219.278 0 .334-.111.334-.667 0-.367-.075-.667-.167-.667-.092 0-.167-.187-.167-.416 0-.229-.075-.417-.166-.417-.092 0-.167-.15-.167-.333 0-.186-.111-.334-.25-.334-.156 0-.25-.157-.25-.416 0-.229-.075-.417-.167-.417-.091 0-.166-.15-.166-.333 0-.184-.075-.334-.167-.334-.092 0-.165-.093-.164-.208.003-.26-.874-2.022-1.044-2.097-.069-.031-.125-.2-.125-.375 0-.176-.075-.32-.167-.32-.092 0-.167-.103-.167-.229 0-.273-.842-1.83-1.033-1.91-.073-.03-.133-.22-.133-.421 0-.201-.15-.474-.334-.606-.183-.132-.333-.412-.333-.62 0-.209-.075-.38-.167-.38-.091 0-.166-.145-.166-.322a.941.941 0 0 0-.25-.571c-.138-.138-.25-.331-.25-.429 0-.098-.075-.178-.167-.178-.092 0-.167-.15-.167-.334 0-.183-.075-.333-.166-.333-.092 0-.167-.187-.167-.417 0-.229-.075-.416-.167-.416-.091 0-.166-.15-.166-.334 0-.183-.075-.333-.167-.333-.092 0-.167-.152-.167-.339 0-.186-.112-.381-.25-.434-.137-.053-.25-.238-.25-.411 0-.174-.075-.316-.166-.316-.092 0-.167-.146-.167-.323 0-.178-.075-.37-.167-.427-.091-.057-.166-.249-.166-.427 0-.177-.075-.323-.167-.323-.092 0-.167-.15-.167-.333 0-.186-.111-.334-.25-.334-.155 0-.25-.157-.25-.416 0-.229-.075-.417-.166-.417-.092 0-.167-.15-.167-.333 0-.184-.075-.334-.167-.334-.091 0-.166-.187-.166-.416 0-.365-.073-.417-.584-.417-.321 0-.583.075-.583.167 0 .091-.15.166-.333.166-.186 0-.334.111-.334.25 0 .156-.157.25-.416.25-.229 0-.417.075-.417.167 0 .092-.15.167-.333.167-.184 0-.334.075-.334.166 0 .092-.187.167-.416.167-.229 0-.417.075-.417.167 0 .091-.142.166-.316.166-.173 0-.358.113-.411.25-.053.138-.248.25-.434.25-.187 0-.339.075-.339.167 0 .092-.225.167-.5.167s-.5.056-.5.126c0 .069-.206.211-.458.316-1.542.638-1.875.802-1.875.923 0 .074-.15.135-.334.135-.183 0-.333.075-.333.166 0 .092-.187.167-.417.167-.229 0-.416.075-.416.167 0 .091-.225.166-.5.166s-.5.075-.5.167c0 .092-.188.167-.417.167-.259 0-.417.094-.417.25 0 .174-.176.25-.583.25-.321 0-.583.075-.583.166 0 .092-.225.167-.5.167s-.5.075-.5.167c0 .091-.263.166-.584.166-.321 0-.583.075-.583.167 0 .092-.227.167-.505.167-.296 0-.545.104-.601.25-.066.169-.331.25-.828.25-.403 0-.733.075-.733.166 0 .092-.333.167-.74.167s-.786.075-.843.167c-.057.091-.507.166-1 .166s-.943.075-1 .167c-.065.105-1.891.167-4.927.167-3.104 0-4.823-.06-4.823-.167 0-.094-.469-.167-1.073-.167-.591 0-1.12-.075-1.177-.166-.057-.092-.394-.167-.75-.167s-.693-.075-.75-.167c-.057-.091-.391-.166-.742-.166-.414 0-.673-.088-.735-.25-.056-.146-.306-.25-.601-.25-.278 0-.505-.075-.505-.167 0-.092-.263-.167-.584-.167-.321 0-.583-.075-.583-.166 0-.092-.225-.167-.5-.167s-.5-.075-.5-.167c0-.091-.187-.166-.417-.166-.259 0-.416-.095-.416-.25 0-.138-.146-.25-.324-.25-.178 0-.37-.075-.426-.167-.057-.092-.249-.167-.427-.167s-.323-.075-.323-.166c0-.092-.15-.167-.334-.167-.183 0-.333-.075-.333-.167 0-.091-.187-.166-.417-.166-.259 0-.416-.095-.416-.25 0-.139-.148-.25-.334-.25-.183 0-.333-.075-.333-.167 0-.092-.113-.167-.25-.167-.138 0-.25-.075-.25-.166 0-.092-.133-.167-.297-.167-.163 0-.404-.15-.536-.333-.132-.184-.356-.334-.497-.334-.141 0-.481-.261-.755-.579-.274-.319-.592-.582-.707-.584-.114-.002-.208-.078-.208-.17 0-.092-.15-.167-.333-.167-.184 0-.334-.078-.334-.174 0-.186-.748-.992-.921-.992-.133 0-.579-.446-.579-.579 0-.134-.787-.921-.921-.921-.169 0-.579-.463-.579-.655 0-.098-.075-.179-.166-.179-.092 0-.167-.116-.167-.257 0-.29-.725-1.076-.992-1.076-.096 0-.175-.171-.175-.38s-.15-.488-.333-.62c-.183-.132-.333-.339-.333-.459 0-.273-.476-1.034-.871-1.394-.163-.148-.296-.429-.296-.625 0-.195-.075-.355-.167-.355-.091 0-.166-.225-.166-.5s-.075-.5-.167-.5c-.092 0-.167-.188-.167-.417 0-.259-.094-.417-.25-.417-.174 0-.25-.176-.25-.583 0-.321-.075-.583-.166-.583-.092 0-.167-.15-.167-.334 0-.332.111-.333 34.833-.333h34.834v-.75c0-.413.075-.75.166-.75.095 0 .167-.495.167-1.153 0-.763.069-1.176.205-1.221.141-.047.224-.661.266-1.972.033-1.047.129-1.975.212-2.062.197-.207.197-12.309 0-12.517-.082-.087-.179-.941-.215-1.897-.044-1.159-.133-1.761-.267-1.805-.124-.042-.201-.413-.201-.97 0-.497-.075-.903-.167-.903-.091 0-.166-.413-.166-.917s-.075-.916-.167-.916c-.092 0-.167-.333-.167-.74 0-.408-.075-.787-.166-.844-.092-.056-.167-.363-.167-.681 0-.361-.094-.615-.25-.675-.154-.059-.25-.313-.25-.661 0-.312-.075-.566-.167-.566-.091 0-.166-.258-.166-.573 0-.316-.075-.62-.167-.677-.092-.057-.167-.282-.167-.5 0-.218-.075-.443-.166-.5-.092-.057-.167-.288-.167-.515 0-.227-.113-.455-.25-.508-.138-.053-.25-.271-.25-.485 0-.214-.075-.435-.167-.492-.091-.057-.166-.286-.166-.51 0-.224-.075-.407-.167-.407-.092 0-.167-.187-.167-.416 0-.229-.075-.417-.166-.417-.092 0-.167-.15-.167-.333 0-.186-.111-.334-.25-.334-.156 0-.25-.157-.25-.416 0-.229-.075-.417-.167-.417-.091 0-.166-.15-.166-.333 0-.184-.075-.334-.167-.334-.092 0-.167-.187-.167-.416 0-.229-.075-.417-.166-.417-.092 0-.167-.118-.167-.262 0-.144-.094-.366-.208-.494-.495-.552-.625-.74-.625-.904a.17.17 0 0 0-.167-.173c-.092 0-.167-.15-.167-.334 0-.183-.075-.333-.166-.333-.092 0-.167-.113-.167-.25 0-.138-.075-.25-.167-.25-.091 0-.166-.102-.166-.227 0-.124-.188-.367-.417-.539-.229-.172-.417-.449-.417-.614 0-.3-.697-1.12-.951-1.12-.074 0-.241-.244-.373-.542-.131-.298-.655-.98-1.165-1.516-1.542-1.621-2.011-2.138-2.011-2.221 0-.181-.496-.554-.738-.554a.257.257 0 0 1-.262-.25c0-.138-.074-.25-.164-.25-.091 0-.657-.488-1.259-1.084-.601-.596-1.186-1.083-1.298-1.083-.113 0-.313-.15-.445-.333-.132-.184-.329-.334-.436-.334-.107 0-.239-.112-.291-.25-.053-.137-.177-.25-.275-.25-.098 0-.34-.15-.537-.333-.197-.183-.459-.333-.584-.333-.124 0-.413-.188-.642-.417-.23-.229-.526-.417-.66-.417-.133 0-.242-.075-.242-.166 0-.092-.15-.167-.333-.167-.184 0-.334-.075-.334-.167 0-.091-.136-.166-.302-.166-.166 0-.482-.169-.703-.375-.472-.442-1.105-.792-1.43-.792-.127 0-.231-.075-.231-.167 0-.091-.15-.166-.334-.166-.183 0-.333-.075-.333-.167 0-.092-.187-.167-.417-.167-.229 0-.416-.075-.416-.166 0-.092-.083-.167-.183-.167-.179 0-1.112-.376-1.69-.681-.159-.084-.478-.152-.708-.152-.231 0-.419-.075-.419-.167 0-.092-.225-.167-.5-.167s-.5-.075-.5-.166c0-.092-.263-.167-.584-.167-.407 0-.583-.075-.583-.25s-.176-.25-.583-.25c-.321 0-.584-.075-.584-.167 0-.091-.412-.166-.916-.166-.505 0-.917-.075-.917-.167 0-.092-.338-.167-.75-.167-.413 0-.75-.075-.75-.166 0-.092-.331-.167-.736-.167-.44 0-.764-.084-.805-.208-.047-.138-.554-.227-1.514-.267-.795-.033-1.445-.127-1.445-.209 0-.082-1.008-.149-2.24-.149-1.314 0-2.283-.069-2.343-.167-.063-.102-1.36-.167-3.334-.167-1.973 0-3.27.065-3.333.167m108.917.333c0 .1-.641.167-1.589.167-1.258 0-1.608.052-1.684.25-.072.186-.368.25-1.162.25-.599 0-1.065.073-1.065.167 0 .091-.338.166-.75.166-.413 0-.75.075-.75.167 0 .092-.408.167-.907.167-.499 0-.953.075-1.01.166-.057.092-.318.167-.581.167-.263 0-.591.112-.729.25-.137.137-.48.25-.761.25-.282 0-.512.075-.512.167 0 .091-.296.166-.657.166-.361 0-.703.075-.76.167-.057.092-.286.167-.51.167-.224 0-.407.075-.407.166 0 .092-.225.167-.5.167s-.5.067-.5.148c0 .082-.262.197-.583.258-.321.06-.583.181-.583.268 0 .088-.188.159-.417.159-.229 0-.417.075-.417.167 0 .092-.15.167-.333.167-.183 0-.333.075-.333.166 0 .092-.221.167-.49.167-.27 0-.537.075-.594.167-.056.091-.248.166-.426.166s-.324.113-.324.25c0 .156-.157.25-.416.25-.229 0-.417.075-.417.167 0 .092-.15.167-.333.167-.184 0-.334.075-.334.166 0 .092-.187.167-.416.167-.229 0-.417.075-.417.167 0 .091-.115.166-.255.166a.41.41 0 0 0-.351.25c-.053.138-.238.25-.412.25-.173 0-.315.075-.315.167 0 .092-.113.167-.25.167-.138 0-.25.075-.25.166 0 .092-.15.167-.334.167-.183 0-.333.075-.333.167 0 .091-.139.166-.31.166-.17 0-.451.188-.623.417-.172.229-.445.417-.607.417-.161 0-.293.075-.293.166 0 .092-.113.167-.25.167-.138 0-.25.075-.25.167 0 .091-.118.166-.262.166-.3 0-.738.39-.738.655 0 .098-.113.179-.25.179-.138 0-.25.075-.25.166 0 .092-.119.167-.264.167-.145 0-.519.262-.831.583-.311.321-.643.584-.737.584-.094 0-.407.225-.695.5-.287.275-.587.5-.665.5-.078 0-.142.083-.142.186 0 .206-1.153 1.314-1.367 1.314-.24 0-2.633 2.505-2.633 2.756 0 .134-.08.244-.178.244-.208 0-.653.413-.66.613-.002.075-.34.43-.75.789-.41.358-.745.76-.745.891 0 .132-.225.45-.5.707-.275.257-.5.515-.5.574 0 .117-.221.399-.792 1.009-.206.221-.375.523-.375.671 0 .306-.386.746-.654.746-.099 0-.179.15-.179.333 0 .183-.075.333-.167.333-.091 0-.166.113-.166.25 0 .138-.075.25-.167.25-.092 0-.167.15-.167.334 0 .183-.075.333-.166.333-.092 0-.167.095-.167.21 0 .116-.187.412-.417.659-.229.248-.416.566-.416.707 0 .142-.075.257-.167.257-.092 0-.167.188-.167.417 0 .229-.075.417-.166.417-.092 0-.167.142-.167.315 0 .174-.113.359-.25.412-.138.052-.25.248-.25.434s-.075.339-.167.339c-.091 0-.166.15-.166.333 0 .183-.075.333-.167.333-.092 0-.167.188-.167.417 0 .229-.075.417-.166.417-.092 0-.167.15-.167.333 0 .183-.075.333-.167.333-.091 0-.166.263-.166.584 0 .407-.076.583-.25.583-.139 0-.25.148-.25.333 0 .184-.075.334-.167.334-.092 0-.167.183-.167.406 0 .224-.075.454-.166.51-.092.057-.167.319-.167.584 0 .264-.075.526-.167.583-.091.057-.166.254-.166.438a.964.964 0 0 1-.25.586c-.138.137-.25.428-.25.645 0 .217-.075.441-.167.498-.092.056-.167.398-.167.76 0 .361-.075.656-.166.656-.092 0-.167.338-.167.75 0 .413-.075.75-.167.75-.091 0-.166.306-.166.679 0 .381-.11.788-.25.928-.159.159-.25.57-.25 1.122 0 .479-.069.943-.154 1.03-.164.169-.305 1.483-.446 4.158-.049.917-.159 1.738-.244 1.825-.217.22-.206 7.592.01 7.592.101 0 .167.719.167 1.823 0 1.036.072 1.868.167 1.927.091.056.166.586.166 1.176 0 .605.073 1.074.167 1.074.092 0 .167.433.167.968 0 .593.094 1.093.244 1.291.135.178.247.605.25.949.003.344.081.625.172.625.092 0 .167.296.167.657 0 .361.075.703.167.76.091.056.166.398.166.76 0 .361.075.656.167.656.092 0 .167.263.167.584 0 .407.075.583.25.583.174 0 .25.176.25.583 0 .321.075.584.166.584.092 0 .167.22.167.49 0 .269.075.536.167.593.091.057.166.324.166.593 0 .27.075.49.167.49.092 0 .167.153.167.339 0 .186.112.382.25.434.137.053.25.234.25.402s.075.352.166.409c.092.056.167.323.167.593 0 .269.075.49.167.49.091 0 .166.15.166.333 0 .184.075.334.167.334.092 0 .167.155.167.345 0 .19.093.45.208.577.532.594.625.753.625 1.071 0 .187.075.34.167.34.091 0 .166.15.166.333 0 .184.07.334.156.334s.251.262.367.583c.116.321.308.583.427.583.12 0 .217.15.217.334 0 .183.075.333.167.333.091 0 .166.112.166.25 0 .137.075.25.167.25.092 0 .167.132.167.294 0 .161.187.434.416.606.23.173.417.436.417.587 0 .15.15.381.333.513.184.132.334.374.334.537 0 .163.075.296.166.296.092 0 .167.113.167.25 0 .138.08.25.179.25.265 0 .654.439.654.738 0 .144.075.262.167.262.092 0 .167.079.167.175 0 .226.766.992.992.992.096 0 .174.135.174.301 0 .336 1.026 1.532 1.314 1.532.103 0 .186.078.186.173 0 .224 1.104 1.327 1.328 1.327.095 0 .172.078.172.173 0 .181 1.085 1.327 1.257 1.327.134 0 .577.448.577.584 0 .173.46.583.654.583.099 0 .179.075.179.167 0 .091.118.166.262.166.26 0 .738.378.738.584 0 .173.461.583.655.583.098 0 .178.075.178.167 0 .091.111.166.247.166s.518.263.848.584c.33.32.69.583.8.583.109 0 .307.15.439.333.132.184.355.335.495.337.14.001.431.189.647.416.216.228.497.414.625.414s.233.061.233.136c0 .074.262.238.583.364.321.126.583.29.583.364 0 .075.142.136.316.136.173 0 .359.112.411.25.053.137.249.25.435.25s.338.075.338.167c0 .091.15.166.334.166.183 0 .333.075.333.167 0 .092.153.167.341.167.187 0 .542.187.79.416.247.23.618.417.826.417.207 0 .376.075.376.167 0 .091.15.166.334.166.183 0 .333.075.333.167 0 .092.188.167.417.167.229 0 .416.075.416.166 0 .092.217.167.483.167.274 0 .523.107.578.25.052.137.248.25.434.25s.339.075.339.167c0 .091.183.166.406.166.224 0 .454.075.51.167.057.092.361.167.677.167.315 0 .573.075.573.166 0 .092.263.167.584.167.32 0 .583.075.583.167 0 .091.181.166.403.166.221 0 .431.085.465.188.056.169.564.301 2.259.59.298.051.584.159.634.241.051.081.388.148.749.148s.657.075.657.167c0 .095.5.166 1.166.166.926 0 1.167.052 1.167.25 0 .197.23.25 1.069.25.708 0 1.093.071 1.139.209.055.163 2.122.208 9.589.208 7.394 0 9.566-.047 9.728-.208.119-.119.625-.209 1.18-.209.71 0 .998-.067 1.068-.25.071-.186.368-.25 1.161-.25.6 0 1.066-.073 1.066-.166 0-.092.337-.167.75-.167.412 0 .75-.075.75-.167 0-.091.296-.166.657-.166.361 0 .703-.075.76-.167.056-.092.355-.167.664-.167.309 0 .674-.112.812-.25a.96.96 0 0 1 .585-.25c.185 0 .382-.075.439-.166.056-.092.361-.167.676-.167.316 0 .574-.075.574-.167 0-.091.262-.166.583-.166.321 0 .583-.075.583-.167 0-.092.15-.167.334-.167.183 0 .333-.075.333-.166 0-.092.182-.167.405-.167.222 0 .517-.113.655-.25a.967.967 0 0 1 .595-.25c.19 0 .345-.061.345-.137 0-.075.38-.239.844-.366.464-.126.881-.29.926-.363.046-.074.229-.134.407-.134.177 0 .323-.113.323-.25 0-.156.157-.25.417-.25.229 0 .416-.075.416-.167 0-.091.15-.166.334-.166.183 0 .333-.075.333-.167 0-.092.188-.167.417-.167.229 0 .416-.075.416-.166 0-.092.15-.167.334-.167.185 0 .333-.111.333-.25 0-.138.105-.25.234-.25.316 0 1.599-.694 1.599-.864 0-.075.115-.136.256-.136.304 0 1.052-.456 1.431-.871.148-.162.373-.296.5-.296.199 0 .494-.206 1.431-.996.111-.094.263-.17.339-.17.075 0 .245-.15.377-.334.132-.183.355-.335.495-.338.282-.006.838-.382.838-.567 0-.215.471-.595.738-.595.144 0 .262-.075.262-.166 0-.092.08-.167.179-.167.191 0 .654-.409.654-.579 0-.172.807-.921.993-.921a.17.17 0 0 0 .174-.167c0-.091.086-.166.19-.166.105 0 .394-.207.643-.459s.614-.589.81-.748c.572-.465.499-1.637-.143-2.293-.275-.282-.5-.584-.5-.673a.165.165 0 0 0-.167-.161c-.091 0-.166-.096-.166-.213 0-.117-.15-.321-.334-.453-.183-.132-.333-.356-.333-.497 0-.141-.261-.481-.58-.755-.319-.274-.581-.633-.583-.798-.002-.164-.172-.479-.379-.7-.599-.641-.791-.894-.791-1.04 0-.075-.15-.245-.334-.377-.183-.132-.333-.34-.333-.462s-.262-.491-.583-.822c-.321-.33-.584-.701-.584-.825 0-.123-.075-.224-.166-.224-.092 0-.167-.095-.167-.211 0-.116-.187-.351-.417-.523-.229-.172-.416-.415-.416-.54 0-.124-.075-.226-.167-.226-.092 0-.167-.113-.167-.25 0-.138-.075-.25-.166-.25-.092 0-.167-.118-.167-.262 0-.3-.389-.738-.655-.738-.098 0-.178-.15-.178-.334 0-.183-.075-.333-.167-.333-.092 0-.167-.096-.167-.213 0-.117-.15-.322-.333-.454-.183-.132-.333-.329-.333-.439 0-.109-.263-.469-.584-.799-.321-.331-.583-.693-.583-.806 0-.274-.739-1.122-.978-1.122-.104 0-.189-.171-.189-.38s-.15-.488-.333-.62c-.183-.132-.333-.342-.333-.467 0-.356-.937-1.2-1.333-1.2-.38 0-.834.357-.834.655 0 .098-.113.178-.25.178s-.25.075-.25.167c0 .092-.119.167-.265.167-.146 0-.593.337-.994.75-.401.412-.844.75-.985.75-.141 0-.256.062-.256.138 0 .076-.187.239-.417.362-.229.122-.416.322-.416.444 0 .123-.15.222-.334.222-.183 0-.333.075-.333.167 0 .092-.113.167-.25.167s-.25.075-.25.166c0 .092-.132.167-.294.167-.161 0-.434.188-.606.417-.173.229-.453.416-.623.416-.171 0-.31.075-.31.167 0 .092-.15.167-.334.167-.183 0-.333.075-.333.166 0 .092-.136.167-.302.167-.166 0-.45.138-.63.306a2.1 2.1 0 0 1-.782.42c-.249.063-.453.187-.453.277 0 .09-.187.164-.416.164-.229 0-.417.075-.417.166 0 .092-.15.167-.333.167-.184 0-.334.075-.334.167 0 .091-.22.166-.49.166-.269 0-.536.075-.593.167-.057.092-.251.167-.432.167s-.372.112-.424.25c-.055.142-.304.25-.578.25-.266 0-.483.075-.483.166 0 .092-.262.167-.583.167-.321 0-.583.075-.583.167 0 .091-.296.166-.657.166-.361 0-.703.075-.76.167-.057.092-.356.167-.665.167-.308 0-.674.112-.811.25-.168.167-.585.25-1.262.25-.564 0-1.012.074-1.012.166 0 .107-1.611.167-4.5.167-2.889 0-4.5-.06-4.5-.167 0-.097-.556-.166-1.333-.166-1.074 0-1.334-.049-1.334-.25 0-.175-.176-.25-.583-.25-.321 0-.583-.075-.583-.167 0-.092-.221-.167-.49-.167-.27 0-.537-.075-.594-.166-.056-.092-.398-.167-.76-.167-.361 0-.656-.075-.656-.167 0-.091-.153-.166-.339-.166-.186 0-.382-.113-.434-.25-.053-.138-.234-.25-.402-.25s-.352-.075-.409-.167c-.056-.092-.323-.167-.593-.167-.269 0-.49-.075-.49-.166 0-.092-.15-.167-.333-.167-.184 0-.334-.075-.334-.167 0-.091-.187-.166-.416-.166-.26 0-.417-.095-.417-.25a.254.254 0 0 0-.257-.25c-.141 0-.418-.15-.615-.334-.197-.183-.477-.333-.623-.333-.145 0-.373-.15-.505-.333-.132-.184-.34-.334-.461-.334-.122 0-.395-.187-.608-.416-.212-.229-.492-.417-.622-.417-.129 0-.344-.15-.476-.333-.132-.184-.336-.334-.453-.334-.117 0-.213-.078-.213-.174 0-.202-.755-.991-.951-.994-.073-.001-.387-.264-.698-.583-.311-.32-.629-.582-.708-.582-.079 0-.143-.102-.143-.227 0-.124-.188-.367-.417-.539-.229-.172-.417-.373-.417-.446 0-.073-.262-.395-.583-.716-.321-.321-.583-.644-.583-.72 0-.075-.225-.371-.5-.659-.275-.288-.5-.602-.5-.697 0-.234-.505-1.015-.871-1.349-.163-.148-.296-.429-.296-.625 0-.195-.075-.355-.167-.355-.091 0-.166-.15-.166-.334 0-.183-.075-.333-.167-.333-.092 0-.167-.152-.167-.339 0-.186-.112-.381-.25-.434-.137-.053-.25-.271-.25-.485 0-.214-.075-.435-.166-.492-.092-.057-.167-.286-.167-.51 0-.224-.075-.407-.167-.407-.091 0-.166-.22-.166-.49 0-.269-.075-.536-.167-.593-.092-.057-.167-.316-.167-.575 0-.266-.109-.515-.25-.569-.184-.07-.25-.361-.25-1.101 0-.559-.074-1.005-.166-1.005-.097 0-.167-.552-.167-1.323 0-.728-.075-1.37-.167-1.427-.093-.057-.166-.835-.166-1.76 0-.993.066-1.657.166-1.657s.167-.666.167-1.666c0-1 .067-1.667.167-1.667.092 0 .166-.448.166-1.012 0-.677.083-1.094.25-1.262.138-.137.25-.507.25-.821 0-.315.075-.572.167-.572.092 0 .167-.262.167-.583 0-.321.075-.583.166-.583.092 0 .167-.225.167-.5s.075-.5.167-.5c.091 0 .166-.263.166-.584 0-.407.076-.583.25-.583.156 0 .25-.157.25-.417 0-.229.075-.416.167-.416.092 0 .167-.15.167-.334 0-.183.075-.333.166-.333.092 0 .167-.146.167-.323 0-.178.075-.37.167-.427.091-.057.166-.241.166-.409 0-.168.113-.349.25-.401a.41.41 0 0 0 .25-.351c0-.141.075-.256.167-.256.092 0 .167-.112.167-.25 0-.137.075-.25.166-.25.092 0 .167-.116.167-.257 0-.142.188-.445.417-.674.229-.23.416-.491.416-.582 0-.09.244-.421.542-.734 1.396-1.467 1.625-1.736 1.625-1.905 0-.1.075-.181.167-.181.091 0 .166-.112.166-.25s.118-.25.262-.25a.79.79 0 0 0 .473-.208c.116-.115.41-.358.654-.54.245-.182.445-.426.445-.542 0-.115.096-.21.213-.21.117 0 .321-.15.453-.333.132-.184.374-.334.537-.334.163 0 .297-.058.297-.13 0-.072.243-.273.541-.447.298-.174.663-.452.812-.619.148-.167.429-.304.625-.304.195 0 .355-.075.355-.166 0-.092.118-.167.262-.167.144 0 .366-.094.494-.208.593-.532.753-.625 1.07-.625.188 0 .341-.075.341-.167 0-.092.15-.167.333-.167.183 0 .333-.075.333-.166 0-.092.188-.167.417-.167.229 0 .417-.075.417-.167 0-.091.227-.166.505-.166.295 0 .545-.104.601-.25.053-.138.238-.25.411-.25.174 0 .316-.075.316-.167 0-.092.262-.167.583-.167.321 0 .584-.075.584-.166 0-.092.337-.167.75-.167.412 0 .75-.075.75-.167 0-.091.302-.166.672-.166.443 0 .704-.085.767-.25.069-.18.35-.25.995-.25.495 0 .899-.075.899-.167 0-.101.747-.167 1.907-.167 1.091 0 1.951-.071 2.01-.166.056-.092.619-.167 1.25-.167s1.193.075 1.25.167c.057.093.835.166 1.76.166.993 0 1.656.067 1.656.167 0 .092.367.167.816.167.571 0 .844.075.911.25.056.146.306.25.601.25.278 0 .506.075.506.166 0 .092.337.167.75.167.412 0 .75.075.75.167 0 .091.15.166.333.166.183 0 .333.075.333.167 0 .092.18.167.399.167.22 0 .442.112.495.25.056.146.306.25.601.25.278 0 .505.075.505.166 0 .092.15.167.334.167.183 0 .333.075.333.167 0 .091.15.166.333.166.184 0 .334.075.334.167 0 .092.187.167.416.167.23 0 .417.085.417.19 0 .256.515.631.875.638.16.003.292.08.292.172 0 .091.133.166.296.166.163 0 .407.157.542.348.135.191.47.464.745.608.275.143.621.399.77.569.148.17.397.309.553.309.297 0 .76.375.76.615 0 .076.199.288.443.47.243.182.674.538.958.79.759.675.908.791 1.017.791.242 0 .916.852.916 1.159 0 .766 1.478.274 1.494-.497.003-.14.156-.363.339-.495.183-.132.333-.304.333-.382 0-.078.094-.246.209-.374.518-.578.625-.746.625-.987 0-.141.075-.257.166-.257.092 0 .167-.113.167-.25 0-.138.075-.25.167-.25.091 0 .166-.102.166-.227 0-.124.188-.367.417-.539.229-.172.417-.408.417-.524 0-.115.075-.21.166-.21.092 0 .167-.116.167-.258 0-.141.188-.445.417-.674.229-.229.416-.509.416-.622 0-.113.15-.314.334-.446.183-.132.333-.374.333-.537 0-.163.075-.296.167-.296a.17.17 0 0 0 .166-.174c0-.096.077-.264.17-.375.798-.945.997-1.235.997-1.456 0-.14.15-.363.333-.495.184-.132.334-.34.334-.462 0-.121.187-.395.416-.607.23-.212.417-.492.417-.622s.15-.344.333-.476c.184-.132.334-.411.334-.62 0-.209.08-.38.178-.38.266 0 .655-.439.655-.74 0-.144.231-.505.514-.8.282-.296.636-.745.785-.999.15-.254.332-.461.404-.461.072 0 .13-.15.13-.333 0-.184.075-.334.167-.334a.17.17 0 0 0 .167-.173c0-.096.076-.265.17-.375.806-.956.996-1.24.996-1.493 0-.161.075-.292.167-.292.43 0 .161-1.274-.397-1.884-.311-.339-.616-.616-.679-.616-.161 0-.591-.448-.591-.615 0-.077-.2-.288-.444-.47a8.17 8.17 0 0 1-.655-.54.78.78 0 0 0-.472-.208c-.144 0-.262-.081-.262-.179 0-.213-.417-.655-.618-.655-.078 0-.25-.15-.382-.333-.132-.183-.34-.333-.461-.333-.122 0-.395-.188-.608-.417-.212-.229-.492-.417-.622-.417-.129 0-.344-.15-.476-.333-.132-.183-.379-.333-.548-.333-.338 0-.785-.373-.785-.655 0-.098-.15-.179-.333-.179-.184 0-.334-.075-.334-.166 0-.092-.112-.167-.25-.167-.137 0-.25-.075-.25-.167 0-.091-.15-.166-.333-.166-.183 0-.333-.075-.333-.167 0-.092-.188-.167-.417-.167-.259 0-.417-.094-.417-.25 0-.139-.148-.25-.333-.25-.183 0-.333-.075-.333-.166 0-.092-.146-.167-.324-.167-.178 0-.37-.075-.426-.167-.057-.091-.249-.166-.427-.166s-.323-.075-.323-.167c0-.092-.142-.167-.316-.167-.173 0-.359-.112-.411-.25-.053-.137-.249-.25-.435-.25s-.338-.075-.338-.166c0-.092-.114-.167-.253-.167-.138 0-.401-.075-.583-.167l-.662-.333a1.798 1.798 0 0 0-.679-.167.97.97 0 0 1-.597-.25.946.946 0 0 0-.572-.25c-.176 0-.321-.075-.321-.166 0-.092-.187-.167-.417-.167-.229 0-.416-.075-.416-.167 0-.091-.221-.166-.49-.166-.27 0-.537-.075-.594-.167-.056-.092-.398-.167-.76-.167-.361 0-.656-.075-.656-.166 0-.092-.263-.167-.584-.167-.407 0-.583-.075-.583-.25 0-.174-.175-.25-.573-.25-.316 0-.62-.075-.677-.167-.057-.091-.474-.166-.927-.166-.452 0-.823-.075-.823-.167 0-.092-.413-.167-.917-.167s-.916-.075-.916-.166c0-.092-.394-.169-.875-.172-.504-.003-1.013-.109-1.199-.25-.227-.172-.757-.245-1.782-.245-.802 0-1.504-.075-1.561-.167-.066-.106-2.53-.166-6.843-.166-4.383 0-6.74.058-6.74.166M31.833 65.5c0 .095.5.167 1.167.167s1.167.071 1.167.166c0 .092.217.167.482.167.275 0 .523.107.578.25.056.146.306.25.601.25.278 0 .505.075.505.167 0 .091.15.166.334.166.183 0 .333.075.333.167 0 .092.188.167.417.167.229 0 .416.075.416.166 0 .092.142.167.316.167.173 0 .359.112.411.25.053.137.232.25.398.25s.41.15.542.333c.132.184.336.334.453.334.118 0 .214.075.214.166 0 .092.15.167.333.167.183 0 .333.078.333.172 0 .224 1.104 1.328 1.328 1.328.095 0 .172.085.172.189s.132.31.293.458c.161.148.399.476.528.728.13.252.335.458.457.458.123 0 .222.15.222.334 0 .183.075.333.167.333.092 0 .167.112.167.25 0 .137.075.25.166.25.092 0 .167.146.167.323 0 .178.075.37.167.427.091.057.166.249.166.427 0 .177.113.323.25.323.175 0 .25.176.25.583 0 .321.075.584.167.584.092 0 .167.337.167.75 0 .412.075.75.166.75.105 0 .167 1.027.167 2.75 0 1.722-.062 2.75-.167 2.75-.091 0-.166.295-.166.656 0 .362-.075.704-.167.76-.092.057-.167.326-.167.599 0 .286-.105.536-.25.591-.137.053-.25.238-.25.411 0 .174-.075.316-.166.316-.092 0-.167.171-.167.38s-.15.488-.333.62c-.184.132-.334.411-.334.62 0 .209-.08.38-.178.38-.251 0-.655.432-.655.701 0 .124-.15.334-.333.466-.184.132-.334.336-.334.453 0 .117-.077.213-.172.213-.224 0-1.328 1.104-1.328 1.328 0 .095-.157.172-.349.172-.193 0-.56.225-.817.5-.257.275-.625.5-.817.5-.2 0-.35.108-.35.25 0 .139-.148.25-.333.25-.184 0-.334.075-.334.167 0 .092-.187.167-.416.167-.229 0-.417.075-.417.166 0 .092-.225.167-.5.167s-.5.075-.5.167c0 .091-.187.166-.417.166-.229 0-.416.066-.416.146 0 .08-.3.193-.667.252-.367.058-.667.18-.667.271 0 .093-.509.165-1.166.165-.667 0-1.167.071-1.167.166 0 .103-.806.167-2.083.167-1.278 0-2.084-.064-2.084-.167 0-.094-.472-.166-1.083-.166-.596 0-1.083-.072-1.083-.159 0-.088-.264-.209-.586-.269-.321-.061-.626-.177-.676-.258-.05-.081-.312-.148-.582-.148-.269 0-.49-.075-.49-.166 0-.092-.15-.167-.333-.167-.183 0-.333-.075-.333-.167 0-.091-.188-.166-.417-.166-.229 0-.417-.075-.417-.167 0-.092-.15-.167-.333-.167-.185 0-.333-.111-.333-.25s-.148-.25-.334-.25c-.183 0-.333-.075-.333-.166 0-.092-.096-.167-.213-.167-.117 0-.322-.15-.454-.333-.132-.184-.334-.334-.45-.334-.274 0-2.383-2.109-2.383-2.383 0-.115-.15-.318-.333-.45-.184-.132-.334-.36-.334-.505 0-.146-.15-.426-.333-.623-.183-.197-.333-.474-.333-.615a.255.255 0 0 0-.25-.257c-.156 0-.25-.158-.25-.419 0-.23-.075-.568-.167-.75l-.333-.662a1.98 1.98 0 0 1-.167-.75c0-.23-.065-.419-.144-.419-.079 0-.181-.66-.227-1.466-.046-.811-.186-1.629-.313-1.833-.196-.313-.195-.423.007-.743.134-.211.27-.973.311-1.75.041-.756.14-1.375.22-1.375.08 0 .146-.22.146-.49 0-.269.075-.536.167-.593.091-.057.166-.282.166-.5 0-.218.075-.443.167-.5.092-.057.167-.286.167-.51 0-.25.096-.407.25-.407.139 0 .25-.148.25-.333 0-.183.075-.333.166-.333.092 0 .167-.113.167-.25 0-.138.075-.25.167-.25.091 0 .166-.134.166-.297 0-.163.15-.405.334-.537.183-.132.333-.373.333-.536 0-.164.112-.297.25-.297.137 0 .25-.078.25-.173 0-.24 1.504-1.692 2.051-1.98.247-.13.449-.299.449-.375 0-.076.112-.139.25-.139.137 0 .25-.075.25-.166 0-.092.15-.167.333-.167.186 0 .334-.111.334-.25s.148-.25.333-.25c.183 0 .333-.075.333-.167 0-.091.113-.166.25-.166.138 0 .25-.075.25-.167 0-.092.225-.167.5-.167s.5-.075.5-.166c0-.092.188-.167.417-.167.259 0 .417-.094.417-.25 0-.18.184-.25.656-.25.362 0 .704-.075.76-.167.057-.091.507-.166 1-.166.494 0 .944-.075 1-.167.061-.098 1.058-.167 2.427-.167 1.438 0 2.323.064 2.323.167m215.334 9.333c0 .099.607.167 1.49.167.819 0 1.536.075 1.593.167.057.091.441.166.855.166.446 0 .854.102 1.002.25.138.138.507.25.822.25.314 0 .571.075.571.167 0 .092.15.167.333.167.184 0 .334.075.334.166 0 .092.187.167.416.167.23 0 .417.075.417.167 0 .091.225.166.5.166s.5.075.5.167c0 .092.104.167.232.167s.276.112.328.25c.053.137.211.25.351.25.141 0 .256.075.256.166 0 .092.131.167.291.167.293 0 1.209.687 1.209.906 0 .15.44.594.588.594.13 0 .851.755 1.326 1.391.182.243.399.442.482.442.211 0 .592.534.598.839.003.14.156.363.339.495.183.132.333.373.333.536 0 .164.113.297.25.297.156 0 .25.157.25.417 0 .229.075.416.167.416.092 0 .167.15.167.334 0 .183.075.333.166.333.092 0 .167.188.167.417 0 .229.075.416.167.416.091 0 .166.183.166.407 0 .224.067.448.148.498.081.051.197.355.258.677.06.322.181.585.269.585.087 0 .159.263.159.583 0 .321.075.584.166.584.092 0 .167.337.167.75 0 .412.075.75.167.75.094 0 .166.469.166 1.073 0 .591.075 1.12.167 1.177.092.056.167.173.167.26 0 .097-8.146.156-21.417.156h-21.417v-.399c0-.219.113-.442.25-.494.145-.056.25-.305.25-.592 0-.272.075-.541.167-.598.092-.057.167-.357.167-.667 0-.31.075-.61.166-.666.092-.057.167-.249.167-.427s.075-.323.167-.323c.091 0 .166-.156.166-.346 0-.189.113-.457.25-.595a.935.935 0 0 0 .25-.571c0-.177.075-.322.167-.322.092 0 .167-.171.167-.38 0-.208.15-.488.333-.62.183-.132.333-.373.333-.536 0-.164.07-.297.156-.297.085 0 .208-.169.274-.375.065-.206.257-.496.428-.645.17-.148.311-.41.313-.583.002-.172.264-.538.583-.812.319-.274.58-.593.58-.708 0-.116.075-.21.166-.21a.172.172 0 0 0 .167-.175c0-.185.749-.992.921-.992.136 0 .579-.447.579-.583 0-.206.478-.584.738-.584.144 0 .262-.075.262-.166 0-.092.08-.167.179-.167.23 0 .654-.424.654-.655 0-.098.136-.178.302-.178.166 0 .463-.15.66-.334.197-.183.473-.333.615-.333.141 0 .257-.075.257-.167 0-.091.152-.166.338-.166.186 0 .382-.113.435-.25.052-.138.238-.25.411-.25.174 0 .316-.075.316-.167 0-.092.187-.167.416-.167.23 0 .417-.075.417-.166 0-.092.225-.167.5-.167s.5-.075.5-.167c0-.091.183-.166.407-.166.224 0 .447-.065.496-.145.049-.079.445-.185.879-.234.435-.048.818-.171.851-.272.034-.1.393-.183.798-.183.404 0 .736-.075.736-.166 0-.1.663-.167 1.656-.167.925 0 1.703-.074 1.76-.167.057-.091.661-.166 1.344-.166.715 0 1.24.07 1.24.166M.583 109.708c-.05.207-.07 11.4-.045 24.875l.045 24.5 6.406.044c5.014.034 6.435-.002 6.539-.167.073-.115.135-4.053.136-8.751l.003-8.541 22.625-.042 22.625-.043v-14.666l-22.625-.043-22.625-.042-.003-8.374c-.001-4.606-.047-8.543-.102-8.75l-.101-.375H.673l-.09.375" />
    <path fill="#c6c6c6"
      d="M113.29 33.869c-.042.118-.012.387.067.598.128.348.363 1.305 1.337 5.45.172.733.426 1.783.564 2.333.138.55.262 1.094.274 1.208.013.115.128.209.256.209.127 0 .188-.07.136-.156-.053-.085.111-.179.365-.208.385-.044.464-.135.477-.553.019-.63-.097-.851-.294-.559-.124.184-.148.179-.126-.024.078-.726-.03-1.676-.179-1.584-.101.063-.167-.165-.167-.573 0-.372-.075-.677-.167-.677-.091 0-.166-.256-.166-.569 0-.313-.083-.597-.184-.631-.101-.033-.183-.34-.183-.68 0-.42-.075-.62-.233-.62-.166 0-.234-.218-.234-.75 0-.412-.075-.75-.166-.75-.092 0-.167-.23-.167-.512 0-.732-1.009-1.526-1.21-.952m9.056 27.173c-.007.16-.092.291-.189.291s-.129-.077-.071-.17c.058-.094-.165-.019-.495.166-.331.186-.711.338-.846.338s-.245.075-.245.166c0 .092-.15.167-.333.167-.184 0-.334.075-.334.167 0 .091-.153.166-.341.166-.187 0-.528.188-.757.417-.229.229-.593.417-.808.417-.215 0-.437.12-.494.267-.058.153-.209.226-.351.172-.137-.053-.249-.023-.249.066s-.115.161-.256.161c-.277 0-.969.408-1.483.874-.178.161-.427.293-.554.293-.127 0-.344.113-.482.252-.138.138-.32.208-.405.156-.084-.052-.153-.023-.153.064s-.191.206-.423.265c-.233.058-.379.179-.324.268.055.089-.017.162-.16.162-.143 0-.26.075-.26.166 0 .092-.152.167-.338.167-.186 0-.382.112-.434.249-.053.137-.163.208-.245.157-.082-.051-.149-.013-.149.084s-.123.177-.273.177c-.15 0-.446.187-.659.416-.212.23-.485.417-.607.417s-.329.15-.461.333c-.132.184-.355.336-.495.339-.33.007-.839.394-.839.638 0 .105-.098.19-.218.19s-.38.15-.577.333c-.196.184-.403.334-.46.334-.169 0-.578.463-.578.654 0 .099-.134.179-.299.179-.326 0-1.534 1.057-1.534 1.343 0 .097-.076.13-.168.073-.092-.057-.213.013-.268.156-.054.143-.158.223-.23.179-.071-.044-.415.181-.765.501-.349.32-.695.581-.769.581-.073 0-.134.075-.134.167 0 .092-.6.767-1.333 1.5s-1.408 1.333-1.5 1.333c-.092 0-.167.117-.167.26 0 .143-.075.214-.166.157-.092-.057-.167.014-.167.157s-.099.26-.221.26-.44.269-.708.597c-.268.329-1.514 1.641-2.768 2.917-1.254 1.275-2.245 2.319-2.202 2.319.113 0-.22.385-1.309 1.513-.527.546-.959 1.071-.959 1.167 0 .095-.077.126-.17.067-.094-.058-.161-.043-.147.032.062.358-.033.721-.188.721-.224 0-1.328 1.104-1.328 1.328a.17.17 0 0 1-.167.172c-.091 0-.166.112-.166.25a.25.25 0 0 1-.25.25.25.25 0 0 0-.25.25c0 .138-.075.25-.167.25a.17.17 0 0 0-.167.174c0 .204-.756.993-.951.993-.074 0-.241.243-.372.541a3.643 3.643 0 0 1-.707.984c-.258.243-.47.522-.47.619 0 .098-.262.44-.583.761-.321.321-.583.723-.583.894 0 .171-.187.411-.416.534-.229.122-.505.468-.614.769-.109.301-.259.509-.334.462-.075-.046-.136.076-.136.271 0 .377-.358.831-.655.831-.098 0-.179.188-.179.417 0 .229-.075.417-.166.417-.092 0-.169.093-.171.208-.002.115-.15.396-.329.625-.18.229-.328.548-.33.708-.002.161-.116.292-.254.292-.139 0-.25.148-.25.333 0 .184-.061.334-.135.334-.075 0-.239.262-.365.583-.126.321-.29.583-.364.583-.075 0-.136.188-.136.417 0 .229-.056.417-.125.418-.167.001-.708.965-.708 1.262 0 .13-.075.237-.167.237-.091 0-.166.145-.166.323 0 .178-.075.37-.167.427-.092.056-.167.288-.167.515 0 .226-.107.453-.239.504a.254.254 0 0 0-.15.326c.05.13-.03.281-.177.338-.147.056-.267.282-.267.501 0 .22-.075.399-.167.399-.091 0-.166.183-.166.407 0 .224-.075.453-.167.51-.092.056-.167.286-.167.51 0 .223-.075.406-.166.406-.092 0-.167.26-.167.578 0 .472-.051.559-.279.472-.21-.081-.253-.04-.174.167.058.15-.004.383-.137.517-.134.133-.243.473-.243.754 0 .282-.075.512-.167.512-.092 0-.167.267-.167.594 0 .362-.066.552-.17.487-.094-.058-.161-.044-.147.032.089.513-.044 1.215-.224 1.179-.128-.025-.229.185-.262.542-.03.32-.123.654-.209.741-.085.087-.154.448-.154.802 0 .386-.067.602-.167.54-.102-.063-.167.193-.167.657 0 .418-.075.76-.166.76-.092 0-.167.257-.167.571 0 .314-.098.671-.217.792-.12.121-.223.51-.229.864-.006.354-.087.691-.179.75-.168.106-.31.839-.481 2.481-.05.481-.16.875-.243.875-.083 0-.151.519-.151 1.153 0 .713-.072 1.177-.189 1.216-.113.037-.196.485-.205 1.097-.008.569-.077 1.034-.153 1.034-.077 0-.093.075-.036.167.056.091.033.166-.053.166-.085 0-.166.544-.18 1.209-.013.664-.094 1.232-.179 1.261-.202.069-.231 10.641-.029 10.765.198.123.358-.717.356-1.88-.001-.93.126-2.06.592-5.271.133-.917.324-2.41.423-3.319.1-.909.24-1.809.311-2 .072-.191.179-.723.24-1.181.127-.963.682-3.71 1.043-5.167.136-.55.318-1.338.404-1.75.086-.413.265-1.088.399-1.5.133-.413.467-1.463.742-2.333 1.873-5.945 4.711-11.462 9.731-18.917 5.116-7.597 15.579-18.362 22.611-23.264.318-.221.928-.665 1.355-.986a20.46 20.46 0 0 1 1.254-.877c.264-.162.93-.59 1.48-.951 2.39-1.57 8.239-5 8.54-5.009.07-.002.314-.15.543-.33.229-.179.549-.327.71-.329.161-.002.422-.154.579-.337.635-.742 1.785-.18 1.957.957.052.344.176.851.274 1.126.099.275.254.875.344 1.333.09.459.27.952.4 1.097.13.145.238.595.24 1 .002.473.12.886.329 1.153.18.23.328.627.33.884.002.258.145.783.318 1.167.174.385.37 1.032.437 1.44.067.407.218.836.336.954.117.117.265.587.328 1.043.062.456.22.917.349 1.024.143.119.236.509.236.988 0 .501.092.869.25 1 .203.169.25.162.25-.037 0-.134.15-.38.333-.546.344-.311.448-.846.184-.944-.082-.031-.176-.705-.209-1.498-.032-.794-.003-1.409.065-1.367.067.042.078-.04.024-.182A.425.425 0 0 0 127.7 78c-.224 0-.219-.033.033-.217.27-.197.273-.237.032-.437-.146-.121-.265-.3-.265-.398 0-.098.11-.033.245.145.134.178.247.236.25.129.011-.425-.195-.682-.487-.606-.167.044-.354-.002-.416-.101-.061-.1-.004-.182.129-.182.159 0 .233-.164.22-.485-.011-.267-.077-.45-.147-.407-.122.076-.196-.419-.14-.941.024-.222.008-.222-.144 0-.148.215-.172.209-.174-.042-.002-.16-.078-.291-.169-.291-.092 0-.167-.08-.167-.177 0-.097.075-.13.167-.073.329.203.158-.48-.257-1.023-.273-.358-.332-.52-.166-.457.335.129.34-.327.006-.604-.138-.114-.25-.417-.25-.673 0-.256-.073-.491-.162-.521-.134-.046-.265-.448-.326-1.002-.006-.062-.13-.231-.274-.375-.144-.144-.181-.262-.083-.262.098 0 .178-.148.178-.328 0-.209-.082-.296-.228-.241-.162.063-.214-.034-.181-.338.03-.278-.035-.426-.189-.426-.221 0-.318-.48-.244-1.209.017-.16-.05-.291-.147-.291-.098 0-.177-.257-.177-.572 0-.314-.097-.67-.216-.791-.118-.122-.194-.464-.168-.762.025-.298-.028-.542-.118-.542-.091 0-.165-.173-.165-.383 0-.211-.077-.46-.171-.554-.093-.094-.204-.347-.246-.563-.041-.216-.171-.453-.287-.527-.167-.106-.168-.135-.004-.137.114-.002.208-.086.208-.187 0-.102-.108-.143-.239-.093-.132.051-.276.002-.32-.107-.045-.109-.087-.068-.095.093m11.478 7.75c-.366.73-.376.825-.034.332.175-.253.373-.405.44-.339.066.067.071-.007.011-.165-.142-.37-.146-.369-.417.172m-4.898 7.297c-.177.134-.252.247-.166.25.086.003.023.106-.14.23-.217.165-.239.247-.083.306.122.047.336-.159.501-.48.159-.309.271-.559.25-.556a2.927 2.927 0 0 0-.362.25m-.525 1.052c.065.106.047.192-.04.192s-.202.113-.255.25c-.14.367.186.306.389-.073.123-.231.117-.357-.02-.442-.12-.074-.148-.046-.074.073m-.068 3.79c0 .294.359.243.462-.066.036-.109-.053-.198-.198-.198a.264.264 0 0 0-.264.264" />
    <path fill="#dcdcdc"
      d="M112.957 33.542c-.073.193 1.231 5.81 1.793 7.72.136.465.297 1.199.356 1.631.064.47.182.758.292.717.102-.037.155-.171.118-.298-.077-.263-.371-1.476-.822-3.395-.974-4.145-1.209-5.102-1.337-5.45-.21-.565-.063-.817.407-.699.444.112.562-.171.139-.334-.43-.164-.862-.115-.946.108m35.298 14.133c.06.097-.059.322-.265.501-.206.178-.329.324-.273.324.055 0-.084.198-.308.441-.225.243-.409.51-.409.595 0 .085-.117.271-.26.414-.142.143-.22.362-.171.488.05.132-.02.229-.167.229-.14 0-.211.072-.156.16.112.18-.253.84-.465.84-.188 0-.52.373-.581.653-.027.125-.233.373-.458.549-.225.177-.409.45-.409.606 0 .157-.15.393-.333.525-.183.132-.333.336-.333.453 0 .118-.075.214-.167.214a.163.163 0 0 0-.167.159c0 .153-.648 1.209-.997 1.625-.093.111-.169.267-.169.346 0 .08-.182.315-.404.524a2.993 2.993 0 0 0-.603.862c-.11.266-.266.484-.347.484-.08 0-.146.079-.146.176 0 .097-.263.521-.584.941-.321.42-.583.838-.583.929 0 .09-.161.305-.359.476-.197.171-.295.311-.218.311.077 0-.099.234-.391.52-.293.286-.532.626-.532.757 0 .13-.15.398-.333.595-.184.197-.334.498-.334.669 0 .172-.064.272-.143.224-.078-.049-.283.172-.454.49-.172.318-.37.578-.441.578-.07 0-.128.113-.128.25 0 .138-.075.25-.167.25-.092 0-.167.105-.167.233 0 .127-.117.277-.26.332-.144.055-.214.176-.156.269.057.093-.013.214-.155.268-.143.055-.218.168-.167.25.051.083-.024.196-.168.251-.143.055-.26.172-.26.26 0 .089-.117.278-.26.421-.143.142-.219.366-.168.496.05.131.027.198-.051.15-.077-.048-.278.169-.447.482-.168.312-.366.531-.44.485-.074-.046-.134.076-.134.27s-.075.307-.167.25c-.092-.057-.167.017-.167.164 0 .147-.189.457-.42.688-.23.231-.369.501-.307.601.067.11.035.134-.082.062-.127-.078-.231.061-.298.396-.057.285-.141.479-.188.433-.046-.047-.23.21-.409.57-.178.361-.473.703-.655.761-.193.061-.295.201-.243.336.049.126-.028.295-.17.375-.141.079-.249.194-.239.256.038.235-.51 1.115-.644 1.032-.077-.048-.13.043-.118.203.013.159-.063.273-.168.254-.114-.022-.156.098-.105.294.063.24.02.305-.156.237-.145-.056-.242.007-.242.157 0 .137.07.206.155.154.086-.053.071.062-.033.257-.224.417-.549.479-.394.074.088-.229.049-.221-.218.042-.21.207-.255.339-.126.372.109.028.242.163.294.3.053.137.04.215-.027.173-.068-.042-.097.573-.065 1.367.033.793.127 1.467.209 1.498.264.098.16.633-.184.944-.183.166-.333.412-.333.546 0 .199-.047.206-.25.037-.158-.131-.25-.499-.25-1 0-.479-.093-.869-.236-.988-.129-.107-.287-.568-.349-1.024-.063-.456-.211-.926-.328-1.043-.118-.118-.269-.547-.336-.954a6.941 6.941 0 0 0-.437-1.44c-.173-.384-.316-.909-.318-1.167-.002-.257-.15-.654-.33-.884-.209-.267-.327-.68-.329-1.153-.002-.405-.11-.855-.24-1-.13-.145-.31-.638-.4-1.097a11.509 11.509 0 0 0-.344-1.333 7.34 7.34 0 0 1-.274-1.126c-.172-1.137-1.322-1.699-1.957-.957-.157.183-.418.335-.579.337-.161.002-.481.15-.71.329-.229.18-.473.328-.543.33-.301.009-6.15 3.439-8.54 5.009-.55.361-1.216.789-1.48.951a20.46 20.46 0 0 0-1.254.877c-.427.321-1.037.765-1.355.986-7.032 4.902-17.495 15.667-22.611 23.264-5.02 7.455-7.858 12.972-9.731 18.917-.275.87-.609 1.92-.742 2.333a17.225 17.225 0 0 0-.399 1.5c-.086.412-.268 1.2-.404 1.75-.361 1.457-.916 4.204-1.043 5.167-.061.458-.168.99-.24 1.181-.071.191-.211 1.091-.311 2-.099.909-.29 2.402-.423 3.319-.466 3.211-.593 4.341-.592 5.271.002 1.155-.157 2.003-.352 1.883-.195-.12-.184 1.778.011 2.087.195.309.29-.114.408-1.825.148-2.14.599-6.739.684-6.968.044-.12.161-1.095.259-2.167.097-1.071.278-2.398.401-2.948.123-.55.275-1.413.338-1.917.113-.906.459-2.579 1.101-5.333 1.295-5.55 3.989-12.604 5.986-15.667.14-.214 1.5-2.572 2.067-3.583.103-.183.329-.558.503-.833l.683-1.084c6.326-10.041 19.913-24.087 26.935-27.845.205-.11.453-.267.55-.35.978-.831 6.559-4.109 9.978-5.86.807-.414 1.578-.844 1.713-.956.432-.359 1.025.061 1.241.879.279 1.052.836 2.975 1.029 3.549.232.69.769 2.498 1.04 3.5.124.458.302 1.058.395 1.333.093.275.37 1.175.614 2 .245.825.505 1.654.579 1.842.074.188.222.764.329 1.279.376 1.815.526 1.759 2.334-.861a620.793 620.793 0 0 1 2.925-4.183c.917-1.297 1.742-2.483 1.834-2.635.091-.151.691-1.017 1.333-1.923a475.66 475.66 0 0 0 2.618-3.75l2.583-3.739a77.25 77.25 0 0 0 1.299-1.917c.092-.153.394-.579.673-.946a22.46 22.46 0 0 0 1.325-1.947c.186-.31 2.991-4.428 3.865-5.676.305-.435.554-.849.554-.922 0-.072.15-.24.333-.372.183-.132.333-.362.333-.511 0-.149.15-.406.334-.572.36-.326.445-.75.152-.75-.124 0-.164-.588-.125-1.832.059-1.929.05-1.955-.746-2.11-.18-.035-.258.012-.193.117m1.245 1.075c0 .311.29.311.833 0l.417-.238-.625-.006c-.447-.004-.625.065-.625.244m0 2.333a.25.25 0 1 0 .5 0 .25.25 0 0 0-.5 0m-20.705 29.782c-.103.309-.462.36-.462.066 0-.146.119-.264.264-.264.145 0 .234.089.198.198" />
    <path fill="#e4e4e4"
      d="M113.309 33.118c-.283.043-.475.199-.534.433-.088.349-.081.351.143.052.178-.239.366-.292.783-.22.302.052.455.056.34.008-.116-.047-.167-.155-.116-.239.052-.083.034-.141-.04-.127-.074.014-.334.055-.576.093m-.118 2.382c0 .229.102.679.226 1 .293.763.295.467.004-.583-.134-.483-.231-.658-.23-.417m.666 2.75c.002.348.443 1.625.461 1.333.006-.091-.096-.504-.226-.916-.13-.413-.236-.6-.235-.417m.5 2.083c.001.23.147.792.324 1.25.338.875.304.567-.09-.833-.138-.487-.234-.66-.234-.417m34.143 7.084c0 .137.056.238.125.223.208-.044.708.219.708.373 0 .079-.093.12-.208.092-.115-.028-.152-.019-.083.02.068.038.125.813.125 1.722 0 .991.066 1.653.166 1.653.281 0 .186.432-.166.75-.184.166-.334.423-.334.572 0 .149-.15.379-.333.511-.183.132-.333.3-.333.372 0 .073-.249.487-.554.922-.874 1.248-3.679 5.366-3.865 5.676a22.46 22.46 0 0 1-1.325 1.947 15.34 15.34 0 0 0-.673.946 77.25 77.25 0 0 1-1.299 1.917c-.622.9-1.785 2.584-2.583 3.742a352.76 352.76 0 0 1-2.667 3.812c-.668.939-1.188 1.735-1.155 1.768.067.067.351-.304 1.484-1.935.414-.596 1.069-1.533 1.454-2.083.386-.55 1.301-1.863 2.035-2.917.734-1.054 1.889-2.704 2.566-3.667a699.08 699.08 0 0 0 2.041-2.916l1.852-2.667a278.58 278.58 0 0 1 1.938-2.75c.494-.687 1.406-2 2.029-2.917a72.005 72.005 0 0 1 1.923-2.699l.792-1.033-.465-.331a3.452 3.452 0 0 0-.955-.454c-.27-.067-.838-.297-1.264-.511-.912-.458-.976-.467-.976-.138m1.833 1.333c-.543.311-.833.311-.833 0 0-.179.178-.248.625-.244l.625.006-.417.238m-4.469 2.5c-.22.481-.086.551.237.125.257-.338.292-.542.092-.542-.077 0-.225.188-.329.417m4.136-.167a.25.25 0 1 1-.5 0 .25.25 0 0 1 .5 0m-28.521 16.86c-.209.254-.197.257.143.045.467-.29.787-.023 1.132.946.127.357.235.529.239.383.031-1.139-.963-2.041-1.514-1.374m-1.229.645c-.367.226-.592.408-.5.406.092-.002.467-.189.833-.415.367-.226.592-.409.5-.406-.091.002-.466.189-.833.415m-1.5.757c-.275.176-.425.32-.333.32.091 0 .391-.15.666-.332.275-.182.425-.326.334-.32-.092.006-.392.155-.667.332m-1.125.584c-.623.338-.585.478.042.154.275-.142.5-.294.5-.337 0-.108-.018-.101-.542.183m5.386.071c0 .137.114.438.252.667l.251.416-.111-.416c-.16-.605-.393-1.001-.392-.667m-6.886.762c-.623.338-.585.479.042.155.275-.143.5-.294.5-.338 0-.107-.018-.101-.542.183m-1.417.832c-.389.234-.708.464-.708.512 0 .09 1.124-.548 1.408-.799.287-.254.02-.144-.7.287m8.978.573c-.005.045.137.495.314 1 .177.504.323.766.324.583 0-.285-.616-1.815-.638-1.583m-11.574 1.015c-.428.284-.779.55-.779.592 0 .042.094.015.209-.06.114-.075.489-.311.833-.525.55-.342.747-.522.57-.522-.03 0-.405.232-.833.515m12.23 1.068c-.002.092.104.467.237.833.132.367.243.544.247.394.004-.149-.102-.524-.236-.833-.134-.308-.245-.486-.248-.394m9.106.958c-.963 1.297-2.777 3.976-2.632 3.886.088-.054.591-.716 1.119-1.471l1.513-2.165c.623-.889.622-1.088 0-.25m-24.669.141c-.428.283-.825.591-.882.683-.084.136 1.515-.893 1.756-1.13.216-.213-.196-.002-.874.447m16.067.734c-.001.184.151.634.337 1 .365.72.326.405-.081-.666-.145-.38-.255-.524-.256-.334m-18.429.939c-.986.738-1.116.939-.217.334.431-.29.829-.601.885-.691.146-.238.074-.199-.668.357m19.092 1.266c-.005.113.098.488.228.834.131.345.4 1.228.599 1.961.949 3.5.953 3.499 4.153-1.463.762-1.182-.436.366-1.493 1.928-1.528 2.26-1.814 2.406-2.08 1.065-.258-1.303-1.388-4.776-1.407-4.325m-25.267 3.92-.659.709.709-.659c.658-.613.785-.758.658-.758-.027 0-.345.319-.708.708m-1.914 1.75-.911.959.958-.911c.527-.501.958-.933.958-.959 0-.123-.159.021-1.005.911m-3.495 3.292c-.683.688-1.204 1.25-1.158 1.25.046 0 .642-.562 1.325-1.25.683-.687 1.204-1.25 1.158-1.25-.046 0-.642.563-1.325 1.25m-2.755 2.958-.995 1.042 1.042-.995c.573-.547 1.042-1.016 1.042-1.041 0-.124-.165.027-1.089.994m-11.495 15.625c-.142.275-.221.5-.175.5.046 0 .2-.225.342-.5.142-.275.221-.5.175-.5-.046 0-.199.225-.342.5M79.917 107c-.143.275-.221.5-.176.5.046 0 .2-.225.342-.5.143-.275.221-.5.176-.5-.046 0-.2.225-.342.5m-3.89 7.757c-.279.613-.226.744.076.187.141-.261.225-.505.187-.543-.038-.038-.156.122-.263.356m-3.598 12.505c-.062.244-.08.476-.04.515.039.04.121-.128.182-.372.062-.244.08-.476.04-.516-.039-.039-.121.129-.182.373m-.67 3.831c-.062.334-.08.641-.04.682.041.041.126-.2.188-.534.063-.335.081-.642.04-.682-.04-.041-.125.199-.188.534m-.378 2.99c.001.459.034.626.072.373a3.008 3.008 0 0 0-.002-.833c-.04-.205-.071.002-.07.46m-.342 2.75c0 .321.034.452.076.292.042-.16.042-.423 0-.583-.042-.161-.076-.03-.076.291M70.872 138c0 .321.034.452.076.292a1.37 1.37 0 0 0 0-.584c-.042-.16-.076-.029-.076.292m-.163 1.917c.002.366.036.497.076.289a1.83 1.83 0 0 0-.004-.666c-.042-.16-.074.01-.072.377m-.271 2.637c-.074.717-.097 1.342-.05 1.389.123.124.319-1.616.247-2.198-.035-.283-.119.063-.197.809m-.592 2.925c-.011.481.023.532.237.354.138-.114.249-.367.248-.562-.002-.263-.04-.296-.147-.127-.121.192-.158.192-.234 0-.05-.125-.096.026-.104.335" />
    <path fill="#ececec"
      d="M112.668 33.082c-.115.138-.166.453-.115.708.179.9.469 2.139.694 2.96.445 1.628.894 3.51 1.004 4.207.061.39.175.748.254.796.148.092.422 1.517.357 1.859-.021.108.032.239.117.292.218.134.048-1.289-.254-2.128-.137-.381-.31-1.03-.384-1.443-.125-.691-.281-1.346-.915-3.833-.796-3.123-.809-3.332-.205-3.336a1.34 1.34 0 0 0 .612-.164c.187-.121.097-.162-.354-.164-.335-.002-.697.108-.811.246M149.5 47.56c.412.211.97.439 1.24.507.269.067.699.271.955.453l.465.331-.792 1.033a72.005 72.005 0 0 0-1.923 2.699c-.623.917-1.535 2.23-2.029 2.917a278.58 278.58 0 0 0-1.938 2.75l-1.852 2.667a699.08 699.08 0 0 1-2.041 2.916c-.677.963-1.832 2.613-2.567 3.667-.734 1.054-1.756 2.517-2.271 3.25-.514.733-1.195 1.708-1.513 2.167-.615.886-1.284 1.837-3.153 4.479-2.089 2.953-2.931 4.172-3.553 5.141-.879 1.372-1.374 1.468-1.691.331-.671-2.403-.998-3.513-1.156-3.921-.099-.258-.184-.633-.187-.833-.003-.2-.15-.664-.327-1.031-.177-.366-.325-.795-.328-.952-.003-.157-.108-.607-.233-1-.124-.393-.43-1.389-.678-2.214a94.585 94.585 0 0 0-.62-2 21.936 21.936 0 0 1-.381-1.369c-.34-1.383-.884-2.012-1.352-1.563-.087.084-1.201.691-2.475 1.35-3.494 1.806-6.007 3.312-9.933 5.955-4.162 2.801-5.787 4.112-10.5 8.474-.688.636-1.616 1.493-2.064 1.905-3.202 2.945-8.073 8.498-10.757 12.264a147.815 147.815 0 0 1-2.019 2.784c-.201.256-.326.506-.277.555.048.049.483-.499.965-1.217.859-1.279 3.05-4.288 3.394-4.66.096-.104.437-.515.758-.914 2.324-2.886 7.174-7.956 10.347-10.816.863-.778 1.607-1.456 1.653-1.505.32-.346 3.939-3.39 4.751-3.996l1.5-1.119c1.134-.845 5.288-3.567 6.962-4.561 2.517-1.495 2.885-1.703 4.203-2.377.642-.328 1.787-.936 2.544-1.351.758-.416 1.405-.756 1.438-.756.129 0 .768 1.664.768 2 0 .195.085.514.189.708.104.194.284.733.4 1.197.116.465.29 1.07.388 1.345.098.275.336 1.063.529 1.75.193.688.495 1.737.671 2.333 1.262 4.271 1.457 4.964 1.583 5.631.177.94 1.226 1.337 1.536.581.067-.162.533-.887 1.038-1.611l1.451-2.083c.294-.422.894-1.276 1.333-1.897.44-.621 1.281-1.821 1.869-2.667.589-.845 2.507-3.562 4.263-6.037a1546.29 1546.29 0 0 0 4.263-6.033c.589-.843 2.008-2.857 3.154-4.475a712.016 712.016 0 0 0 2.75-3.907c2.492-3.605 3.284-4.715 3.785-5.301.572-.67.432-1.079-.503-1.477-.338-.144-.936-.403-1.328-.576-1.07-.472-1.651-.407-.704.079m-67.268 55.738c-.735 1.146-1.471 2.478-1.263 2.285.248-.229 1.89-2.946 1.822-3.014-.03-.031-.282.298-.559.729m-1.792 3.077-.298.542.346-.394c.298-.34.45-.69.298-.69-.026 0-.182.244-.346.542m-.903 1.504c-2.516 4.167-5.824 12.909-6.477 17.121-.128.825.425-.842.623-1.877.109-.572.265-1.125.346-1.229.081-.104.254-.667.384-1.25.362-1.624 1.912-5.943 2.863-7.977l.7-1.5c.149-.321.709-1.359 1.244-2.306 1.008-1.784 1.245-2.518.317-.982M72.86 125.84c-.015.233-.141.862-.281 1.399-.139.536-.219 1.01-.176 1.053.154.154.617-1.799.551-2.33-.052-.424-.073-.451-.094-.122m-.665 3.356c-.016.337-.178 1.374-.362 2.304-.183.93-.333 1.933-.333 2.228 0 .295-.147 1.621-.327 2.946a103.357 103.357 0 0 0-.519 4.826c-.311 3.926-.34 4.142-.586 4.346-.129.107-.235.465-.235.795 0 .558.016.577.231.271.313-.447.769-3.205.769-4.65 0-.648.147-2.341.326-3.762.178-1.421.372-3.183.429-3.917.057-.733.253-2.101.435-3.04.182-.939.301-1.989.265-2.333l-.065-.627-.028.613" />
  </g>
</svg>
